<?xml version="1.0" encoding="UTF-8" standalone="no"?>
<!-- Created with Inkscape (http://www.inkscape.org/) -->

<svg
   xmlns:dc="http://purl.org/dc/elements/1.1/"
   xmlns:cc="http://creativecommons.org/ns#"
   xmlns:rdf="http://www.w3.org/1999/02/22-rdf-syntax-ns#"
   xmlns:svg="http://www.w3.org/2000/svg"
   xmlns="http://www.w3.org/2000/svg"
   xmlns:sodipodi="http://sodipodi.sourceforge.net/DTD/sodipodi-0.dtd"
   xmlns:inkscape="http://www.inkscape.org/namespaces/inkscape"
   width="2125.9841"
   height="1771.6534"
   id="svg2"
   version="1.1"
   inkscape:version="0.48.5 r10040"
   sodipodi:docname="Unnamed document 7">
  <defs
     id="defs4" />
  <sodipodi:namedview
     id="base"
     pagecolor="#ffffff"
     bordercolor="#666666"
     borderopacity="1.0"
     inkscape:pageopacity="0.0"
     inkscape:pageshadow="2"
     inkscape:zoom="0.35"
     inkscape:cx="1762.9139"
     inkscape:cy="1040.4077"
     inkscape:document-units="mm"
     inkscape:current-layer="layer1"
     showgrid="false"
     units="mm"
     inkscape:window-width="1918"
     inkscape:window-height="1033"
     inkscape:window-x="0"
     inkscape:window-y="46"
     inkscape:window-maximized="0" />
  <metadata
     id="metadata7">
    <rdf:RDF>
      <cc:Work
         rdf:about="">
        <dc:format>image/svg+xml</dc:format>
        <dc:type
           rdf:resource="http://purl.org/dc/dcmitype/StillImage" />
        <dc:title></dc:title>
      </cc:Work>
    </rdf:RDF>
  </metadata>
  <g
     inkscape:label="Layer 1"
     inkscape:groupmode="layer"
     id="layer1"
     transform="translate(0,719.3036)">
    <path
       inkscape:connector-curvature="0"
       id="path2990"
       style="font-size:72px;font-style:normal;font-variant:normal;font-weight:bold;font-stretch:normal;text-align:start;line-height:125%;letter-spacing:0px;word-spacing:0px;writing-mode:lr-tb;text-anchor:start;fill:#000000;fill-opacity:1;stroke:none;font-family:Audiowide;-inkscape-font-specification:Audiowide Bold"
       d="m 1787.2652,146.39796 0,-56.17632 252.6858,0 0,-50.58016 55.9611,0 0,106.75648 -308.6469,0" />
    <path
       inkscape:connector-curvature="0"
       id="path2992"
       style="font-size:72px;font-style:normal;font-variant:normal;font-weight:bold;font-stretch:normal;text-align:start;line-height:125%;letter-spacing:0px;word-spacing:0px;writing-mode:lr-tb;text-anchor:start;fill:#000000;fill-opacity:1;stroke:none;font-family:Audiowide;-inkscape-font-specification:Audiowide Bold"
       d="m 1032.5329,-32.65685 -283.4643,0 0,-103.528 c 0,-5.30903 0.5737,-10.90512 1.7219,-16.78833 1.2914,-6.02645 3.2285,-11.98129 5.8113,-17.8645 2.5828,-5.88292 5.8831,-11.47901 9.9009,-16.7883 4.1611,-5.30892 9.1115,-9.97237 14.8512,-13.99029 5.883,-4.16101 12.627,-7.46126 20.2321,-9.9008 7.6048,-2.4391 16.2142,-3.65876 25.8282,-3.65894 l 126.12764,0 c 7.6047,1.8e-4 13.2008,-1.86522 16.7883,-5.59616 3.7304,-3.87404 5.5958,-9.47012 5.5961,-16.78826 l 0,-24.75203 c -3e-4,-7.60476 -1.8657,-13.34434 -5.5961,-17.2188 -3.731,-3.87397 -9.1836,-5.81111 -16.3579,-5.81136 l -179.72114,0 0,-55.96108 179.72114,0 c 9.4701,2.9e-4 18.0078,1.21998 25.6129,3.65901 7.6048,2.43965 14.277,5.7399 20.0169,9.90081 5.88276,4.01803 10.90496,8.68139 15.06636,13.99025 4.1609,5.30943 7.5329,10.90552 10.1161,16.78833 2.726,5.73983 4.6631,11.62293 5.8114,17.64923 1.291,5.88336 1.9367,11.4077 1.937,16.57314 l 0,25.1825 c -3e-4,14.49264 -2.6548,26.76102 -7.9637,36.80514 -5.1659,9.90095 -11.6946,18.00813 -19.5863,24.32152 -7.89216,6.17023 -16.42986,10.69014 -25.61296,13.55982 -9.0401,2.72641 -17.506,4.08959 -25.3977,4.08941 l -126.55804,0 c -4.5919,1.8e-4 -8.2509,0.64585 -10.9771,1.93715 -2.7264,1.29155 -4.8787,3.01342 -6.457,5.16561 -1.435,2.15249 -2.5112,4.59181 -3.2285,7.318 -0.7175,2.72641 -1.2915,5.45274 -1.7219,8.17893 l 0,47.56688 227.5032,0 0,55.96112" />
    <path
       inkscape:connector-curvature="0"
       id="path2994"
       style="font-size:72px;font-style:normal;font-variant:normal;font-weight:bold;font-stretch:normal;text-align:start;line-height:125%;letter-spacing:0px;word-spacing:0px;writing-mode:lr-tb;text-anchor:start;fill:#000000;fill-opacity:1;stroke:none;font-family:Audiowide;-inkscape-font-specification:Audiowide Bold"
       d="m 2085.5432,-105.50329 c -3e-4,14.4925 -2.6548,26.76091 -7.9636,36.8051 -5.166,9.90088 -11.6948,18.00803 -19.5865,24.32156 -7.7487,6.17012 -16.2146,10.61829 -25.3977,13.34459 -9.1835,2.72629 -17.7211,4.08948 -25.6129,4.08948 l -179.5058,0 0,-55.96112 179.5058,0 c 7.6047,7e-5 13.2008,-1.937 16.7883,-5.81132 3.7305,-3.87418 5.5959,-9.47026 5.5961,-16.78829 l 0,-47.56696 -201.8902,0 0,-56.39147 201.8902,0 0,-47.13646 c -2e-4,-15.35315 -7.4617,-23.02991 -22.3844,-23.03016 l -179.5058,0 0,-55.96108 179.5058,0 c 9.6136,2.9e-4 18.223,1.21999 25.8282,3.65902 7.6047,2.43964 14.277,5.7399 20.0168,9.9008 5.8828,4.01803 10.905,8.6814 15.0665,13.99025 4.1609,5.30943 7.5329,10.90552 10.116,16.78833 2.5825,5.73983 4.4479,11.62293 5.5961,17.64924 1.2911,5.88335 1.9368,11.40769 1.9371,16.57313 l 0,151.52536" />
    <path
       inkscape:connector-curvature="0"
       id="path2996"
       style="font-size:72px;font-style:normal;font-variant:normal;font-weight:bold;font-stretch:normal;text-align:start;line-height:125%;letter-spacing:0px;word-spacing:0px;writing-mode:lr-tb;text-anchor:start;fill:#000000;fill-opacity:1;stroke:none;font-family:Audiowide;-inkscape-font-specification:Audiowide Bold"
       d="m 1010.2331,-385.51399 -56.39146,0 0,-126.12769 -198.87701,0 c -4.0178,1.8e-4 -7.7485,-0.71726 -11.1922,-2.15234 -3.4438,-1.57824 -6.4571,-3.58705 -9.0399,-6.02655 -2.4393,-2.5827 -4.3765,-5.59594 -5.8113,-9.03991 -1.435,-3.44356 -2.1524,-7.10258 -2.1524,-10.9769 l 0,-154.32347 55.9611,0 0,126.1277 171.11171,0 0,-126.1277 56.39146,0 0,308.64686" />
    <path
       inkscape:connector-curvature="0"
       id="path2998"
       style="font-size:72px;font-style:normal;font-variant:normal;font-weight:bold;font-stretch:normal;text-align:start;line-height:125%;letter-spacing:0px;word-spacing:0px;writing-mode:lr-tb;text-anchor:start;fill:#000000;fill-opacity:1;stroke:none;font-family:Audiowide;-inkscape-font-specification:Audiowide Bold"
       d="m 1734.09,-462.64622 c -3e-4,5.30922 -0.646,10.90531 -1.9371,16.78831 -1.1482,5.88314 -3.0853,11.76625 -5.8114,17.64932 -2.5831,5.73958 -5.9551,11.26392 -10.116,16.57307 -4.018,5.30915 -8.9684,10.04427 -14.8512,14.2055 -5.7398,4.01771 -12.4121,7.24622 -20.0168,9.68558 -7.6053,2.43932 -16.1429,3.65902 -25.6131,3.65902 l -205.1189,0 0,-55.96117 205.1189,0 c 7.0308,7e-5 12.4117,-2.15227 16.1427,-6.45706 3.8739,-4.30462 5.8111,-9.68544 5.8113,-16.14257 l 0,-24.96729 c -2e-4,-7.31786 -1.8656,-12.91402 -5.596,-16.78835 -3.7311,-3.8741 -9.3272,-5.81118 -16.7884,-5.81136 l -126.1277,0 c -14.4926,1.8e-4 -26.761,-2.58266 -36.8052,-7.74843 -9.9009,-5.30901 -17.9363,-11.90952 -24.1064,-19.80166 -6.1701,-7.89175 -10.69,-16.42941 -13.5597,-25.61296 -2.7264,-9.18315 -4.0896,-17.72081 -4.0895,-25.61291 l 0,-103.74336 257.8516,0 0,55.96113 -201.8905,0 0,47.78223 c -1e-4,7.46163 1.937,13.05772 5.8113,16.78827 3.8742,3.73095 9.4703,5.59635 16.7884,5.59616 l 126.5581,0 c 7.7483,1.9e-4 16.2142,1.43504 25.3978,4.30465 9.1831,2.72649 17.649,7.24641 25.3977,13.55987 7.8917,6.17016 14.4205,14.27735 19.5864,24.32151 5.3089,10.04445 7.9634,22.3128 7.9637,36.80521 l 0,24.96729" />
    <path
       inkscape:connector-curvature="0"
       id="path2992-3"
       style="font-size:72px;font-style:normal;font-variant:normal;font-weight:bold;font-stretch:normal;text-align:start;line-height:125%;letter-spacing:0px;word-spacing:0px;writing-mode:lr-tb;text-anchor:start;fill:#000000;fill-opacity:1;stroke:none;font-family:Audiowide;-inkscape-font-specification:Audiowide Bold"
       d="m 682.81134,-29.041011 -283.4643,0 0,-103.527999 c 0,-5.30903 0.5737,-10.90512 1.7219,-16.78833 1.2913,-6.02645 3.2285,-11.98129 5.8113,-17.8645 2.5828,-5.88292 5.883,-11.47901 9.9009,-16.7883 4.1611,-5.30892 9.1115,-9.97237 14.8512,-13.99029 5.883,-4.16101 12.627,-7.46126 20.2321,-9.9008 7.6048,-2.4391 16.2142,-3.65876 25.8282,-3.65894 l 126.1276,0 c 7.6047,1.8e-4 13.2008,-1.86522 16.7883,-5.59616 3.7304,-3.87404 5.5958,-9.47012 5.5961,-16.78826 l 0,-24.75203 c -3e-4,-7.60476 -1.8657,-13.34434 -5.5961,-17.2188 -3.731,-3.87397 -9.1836,-5.81111 -16.3579,-5.81136 l -179.7211,0 0,-55.96109 179.7211,0 c 9.4701,2.9e-4 18.0078,1.21998 25.6129,3.65901 7.6048,2.43965 14.277,5.7399 20.0169,9.90081 5.8828,4.01803 10.905,8.68139 15.0664,13.99025 4.1609,5.30943 7.5329,10.90552 10.1161,16.78833 2.726,5.73984 4.6631,11.62294 5.8114,17.64924 1.291,5.88336 1.9367,11.4077 1.937,16.57314 l 0,25.1825 c -3e-4,14.49264 -2.6548,26.76102 -7.9637,36.80514 -5.1659,9.90095 -11.6946,18.00813 -19.5863,24.32152 -7.8922,6.17023 -16.4299,10.69014 -25.613,13.55982 -9.0401,2.72641 -17.506,4.08959 -25.3977,4.08941 l -126.558,0 c -4.5919,1.8e-4 -8.2509,0.64585 -10.9771,1.93715 -2.7264,1.29155 -4.8787,3.01342 -6.457,5.16561 -1.435,2.15249 -2.5112,4.59181 -3.2285,7.318 -0.7175,2.72641 -1.2915,5.45274 -1.7219,8.17893 l 0,47.566879 227.5032,0 0,55.96112" />
    <path
       inkscape:connector-curvature="0"
       id="path2994-4"
       style="font-size:72px;font-style:normal;font-variant:normal;font-weight:bold;font-stretch:normal;text-align:start;line-height:125%;letter-spacing:0px;word-spacing:0px;writing-mode:lr-tb;text-anchor:start;fill:#000000;fill-opacity:1;stroke:none;font-family:Audiowide;-inkscape-font-specification:Audiowide Bold"
       d="m 1435.8217,-101.88745 c -3e-4,14.492501 -2.6548,26.760911 -7.9636,36.805101 -5.166,9.90088 -11.6948,18.00803 -19.5865,24.32156 -7.7487,6.17012 -16.2146,10.61829 -25.3977,13.34459 -9.1835,2.72629 -17.7211,4.08948 -25.6129,4.08948 l -179.5059,0 0,-55.96112 179.5059,0 c 7.6047,7e-5 13.2008,-1.937 16.7883,-5.81132 3.7305,-3.87418 5.5959,-9.47026 5.5961,-16.788291 l 0,-47.56696 -201.8903,0 0,-56.39147 201.8903,0 0,-47.13646 c -2e-4,-15.35315 -7.4617,-23.02991 -22.3844,-23.03016 l -179.5059,0 0,-55.96108 179.5059,0 c 9.6136,2.9e-4 18.223,1.21999 25.8282,3.65902 7.6047,2.43964 14.277,5.7399 20.0168,9.9008 5.8828,4.01803 10.905,8.6814 15.0665,13.99025 4.1609,5.30943 7.5329,10.90552 10.116,16.78833 2.5825,5.73983 4.4479,11.62293 5.5961,17.64924 1.2911,5.88335 1.9368,11.40769 1.9371,16.57313 l 0,151.52536" />
    <path
       inkscape:connector-curvature="0"
       id="path2996-7"
       style="font-size:72px;font-style:normal;font-variant:normal;font-weight:bold;font-stretch:normal;text-align:start;line-height:125%;letter-spacing:0px;word-spacing:0px;writing-mode:lr-tb;text-anchor:start;fill:#000000;fill-opacity:1;stroke:none;font-family:Audiowide;-inkscape-font-specification:Audiowide Bold"
       d="m 323.36854,-387.61244 -56.3915,0 0,-126.12769 -198.876827,0 c -4.0178,1.8e-4 -7.7485,-0.71726 -11.1922,-2.15234 -3.4438,-1.57824 -6.4571,-3.58705 -9.0399,-6.02655 -2.4393,-2.5827 -4.3765,-5.59594 -5.8113,-9.03991 -1.435,-3.44356 -2.1524,-7.10258 -2.1524,-10.9769 l 0,-154.32347 55.9611,0 0,126.1277 171.111527,0 0,-126.1277 56.3915,0 0,308.64686" />
    <path
       inkscape:connector-curvature="0"
       id="path2998-2"
       style="font-size:72px;font-style:normal;font-variant:normal;font-weight:bold;font-stretch:normal;text-align:start;line-height:125%;letter-spacing:0px;word-spacing:0px;writing-mode:lr-tb;text-anchor:start;fill:#000000;fill-opacity:1;stroke:none;font-family:Audiowide;-inkscape-font-specification:Audiowide Bold"
       d="m 2087.2254,-459.03038 c -3e-4,5.30922 -0.646,10.90531 -1.9371,16.78831 -1.1482,5.88314 -3.0853,11.76625 -5.8114,17.64932 -2.5831,5.73958 -5.9551,11.26392 -10.116,16.57307 -4.018,5.30915 -8.9684,10.04427 -14.8512,14.2055 -5.7398,4.01771 -12.4121,7.24622 -20.0168,9.68558 -7.6053,2.43932 -16.1429,3.65902 -25.6131,3.65902 l -205.1189,0 0,-55.96117 205.1189,0 c 7.0308,7e-5 12.4117,-2.15227 16.1427,-6.45706 3.8739,-4.30462 5.8111,-9.68544 5.8113,-16.14257 l 0,-24.96729 c -2e-4,-7.31786 -1.8656,-12.91402 -5.596,-16.78835 -3.7311,-3.8741 -9.3272,-5.81118 -16.7884,-5.81136 l -126.1277,0 c -14.4926,1.8e-4 -26.761,-2.58266 -36.8052,-7.74843 -9.9009,-5.30901 -17.9363,-11.90952 -24.1064,-19.80166 -6.1701,-7.89175 -10.69,-16.42941 -13.5597,-25.61296 -2.7264,-9.18315 -4.0896,-17.72081 -4.0895,-25.61291 l 0,-103.74337 257.8516,0 0,55.96114 -201.8905,0 0,47.78223 c -10e-5,7.46163 1.937,13.05772 5.8113,16.78827 3.8742,3.73095 9.4703,5.59635 16.7884,5.59616 l 126.5581,0 c 7.7483,1.9e-4 16.2142,1.43504 25.3978,4.30465 9.1831,2.72649 17.649,7.24641 25.3977,13.55987 7.8917,6.17016 14.4205,14.27735 19.5864,24.32151 5.3089,10.04445 7.9634,22.3128 7.9637,36.80521 l 0,24.96729" />
    <path
       inkscape:connector-curvature="0"
       id="path2992-3-5"
       style="font-size:72px;font-style:normal;font-variant:normal;font-weight:bold;font-stretch:normal;text-align:start;line-height:125%;letter-spacing:0px;word-spacing:0px;writing-mode:lr-tb;text-anchor:start;fill:#000000;fill-opacity:1;stroke:none;font-family:Audiowide;-inkscape-font-specification:Audiowide Bold"
       d="m 319.95419,-34.755302 -283.464304,0 0,-103.528008 c 0,-5.30903 0.5737,-10.90512 1.7219,-16.78833 1.2913,-6.02645 3.2285,-11.98129 5.8113,-17.8645 2.5828,-5.88292 5.8831,-11.47901 9.9009,-16.7883 4.1611,-5.30892 9.1115,-9.97237 14.8512,-13.99029 5.883,-4.16101 12.627,-7.46126 20.2321,-9.9008 7.6048,-2.4391 16.214204,-3.65876 25.828204,-3.65894 l 126.1276,0 c 7.6047,1.8e-4 13.2008,-1.86522 16.7883,-5.59616 3.7304,-3.87404 5.5958,-9.47012 5.5961,-16.78826 l 0,-24.75203 c -3e-4,-7.60476 -1.8657,-13.34434 -5.5961,-17.2188 -3.731,-3.87397 -9.1836,-5.81111 -16.3579,-5.81136 l -179.721104,0 0,-55.96108 179.721104,0 c 9.4701,2.9e-4 18.0078,1.21998 25.6129,3.65901 7.6048,2.43965 14.277,5.7399 20.0169,9.90081 5.8828,4.01803 10.905,8.68139 15.0664,13.99025 4.1609,5.30943 7.5329,10.90552 10.1161,16.78833 2.726,5.73983 4.6631,11.62293 5.8114,17.64923 1.291,5.88336 1.9367,11.4077 1.937,16.57314 l 0,25.1825 c -3e-4,14.49264 -2.6548,26.76102 -7.9637,36.80514 -5.1659,9.90095 -11.6946,18.00813 -19.5863,24.32152 -7.8922,6.17023 -16.4299,10.69014 -25.613,13.55982 -9.0401,2.72641 -17.506,4.08959 -25.3977,4.08941 l -126.558,0 c -4.5919,1.8e-4 -8.2509,0.64585 -10.9771,1.93715 -2.7264,1.29155 -4.878704,3.01342 -6.457004,5.16561 -1.435,2.15249 -2.5112,4.59181 -3.2285,7.318 -0.7175,2.72641 -1.2915,5.45274 -1.7219,8.17893 l 0,47.566888 227.503204,0 0,55.96112" />
    <path
       inkscape:connector-curvature="0"
       id="path2994-4-9"
       style="font-size:72px;font-style:normal;font-variant:normal;font-weight:bold;font-stretch:normal;text-align:start;line-height:125%;letter-spacing:0px;word-spacing:0px;writing-mode:lr-tb;text-anchor:start;fill:#000000;fill-opacity:1;stroke:none;font-family:Audiowide;-inkscape-font-specification:Audiowide Bold"
       d="m 1767.2502,-107.60174 c -3e-4,14.492501 -2.6548,26.760911 -7.9636,36.805101 -5.166,9.90088 -11.6948,18.00803 -19.5865,24.32156 -7.7487,6.17012 -16.2146,10.61829 -25.3977,13.34459 -9.1835,2.72629 -17.7211,4.08948 -25.6129,4.08948 l -179.5059,0 0,-55.96112 179.5059,0 c 7.6047,7e-5 13.2008,-1.937 16.7883,-5.81132 3.7305,-3.87418 5.5959,-9.470261 5.5961,-16.788291 l 0,-47.56696 -201.8903,0 0,-56.39147 201.8903,0 0,-47.13646 c -2e-4,-15.35315 -7.4617,-23.02991 -22.3844,-23.03016 l -179.5059,0 0,-55.96108 179.5059,0 c 9.6136,2.9e-4 18.223,1.21999 25.8282,3.65902 7.6047,2.43964 14.277,5.7399 20.0168,9.9008 5.8828,4.01803 10.905,8.6814 15.0665,13.99025 4.1609,5.30943 7.5329,10.90552 10.116,16.78833 2.5825,5.73983 4.4479,11.62293 5.5961,17.64924 1.2911,5.88335 1.9368,11.40769 1.9371,16.57313 l 0,151.52536" />
    <path
       inkscape:connector-curvature="0"
       id="path2996-7-9"
       style="font-size:72px;font-style:normal;font-variant:normal;font-weight:bold;font-stretch:normal;text-align:start;line-height:125%;letter-spacing:0px;word-spacing:0px;writing-mode:lr-tb;text-anchor:start;fill:#000000;fill-opacity:1;stroke:none;font-family:Audiowide;-inkscape-font-specification:Audiowide Bold"
       d="m 666.22574,-387.61244 -56.3915,0 0,-126.1277 -198.8769,0 c -4.0178,1.8e-4 -7.7485,-0.71726 -11.1922,-2.15234 -3.4438,-1.57824 -6.4571,-3.58705 -9.0399,-6.02655 -2.4393,-2.5827 -4.3765,-5.59594 -5.8113,-9.03991 -1.435,-3.44356 -2.1524,-7.10258 -2.1524,-10.9769 l 0,-154.32347 55.9611,0 0,126.1277 171.1116,0 0,-126.1277 56.3915,0 0,308.64687" />
    <path
       inkscape:connector-curvature="0"
       id="path2998-2-1"
       style="font-size:72px;font-style:normal;font-variant:normal;font-weight:bold;font-stretch:normal;text-align:start;line-height:125%;letter-spacing:0px;word-spacing:0px;writing-mode:lr-tb;text-anchor:start;fill:#000000;fill-opacity:1;stroke:none;font-family:Audiowide;-inkscape-font-specification:Audiowide Bold"
       d="m 1410.0826,-461.88754 c -3e-4,5.30922 -0.646,10.90531 -1.9371,16.78831 -1.1482,5.88314 -3.0853,11.76625 -5.8114,17.64932 -2.5831,5.73958 -5.9551,11.26392 -10.116,16.57307 -4.018,5.30915 -8.9684,10.04427 -14.8512,14.2055 -5.7398,4.01771 -12.4121,7.24622 -20.0168,9.68558 -7.6053,2.43932 -16.1429,3.65902 -25.6131,3.65902 l -205.1189,0 0,-55.96117 205.1189,0 c 7.0308,7e-5 12.4117,-2.15227 16.1427,-6.45706 3.8739,-4.30462 5.8111,-9.68544 5.8113,-16.14257 l 0,-24.96729 c -2e-4,-7.31786 -1.8656,-12.91402 -5.596,-16.78835 -3.7311,-3.8741 -9.3272,-5.81118 -16.7884,-5.81136 l -126.1277,0 c -14.4926,1.8e-4 -26.761,-2.58266 -36.8052,-7.74843 -9.9009,-5.30901 -17.9363,-11.90952 -24.1064,-19.80166 -6.1701,-7.89175 -10.69,-16.42941 -13.5597,-25.61296 -2.7264,-9.18315 -4.0896,-17.72081 -4.0895,-25.61291 l 0,-103.74336 257.8516,0 0,55.96113 -201.8905,0 0,47.78223 c -10e-5,7.46163 1.937,13.05772 5.8113,16.78827 3.8742,3.73095 9.4703,5.59635 16.7884,5.59616 l 126.5581,0 c 7.7483,1.9e-4 16.2142,1.43504 25.3978,4.30465 9.1831,2.72649 17.649,7.24641 25.3977,13.55987 7.8917,6.17016 14.4205,14.27735 19.5864,24.32151 5.3089,10.04445 7.9634,22.3128 7.9637,36.80521 l 0,24.96729" />
    <path
       inkscape:connector-curvature="0"
       id="path2990-6"
       style="font-size:72px;font-style:normal;font-variant:normal;font-weight:bold;font-stretch:normal;text-align:start;line-height:125%;letter-spacing:0px;word-spacing:0px;writing-mode:lr-tb;text-anchor:start;fill:#000000;fill-opacity:1;stroke:none;font-family:Audiowide;-inkscape-font-specification:Audiowide Bold"
       d="m 1065.6766,140.0138 0,-56.176324 252.6858,0 0,-50.580159 55.9611,0 0,106.756483 -308.6469,0" />
    <path
       inkscape:connector-curvature="0"
       id="path2990-2"
       style="font-size:72px;font-style:normal;font-variant:normal;font-weight:bold;font-stretch:normal;text-align:start;line-height:125%;letter-spacing:0px;word-spacing:0px;writing-mode:lr-tb;text-anchor:start;fill:#000000;fill-opacity:1;stroke:none;font-family:Audiowide;-inkscape-font-specification:Audiowide Bold"
       d="m 1411.3908,140.0138 0,-56.176323 252.6858,0 0,-50.58016 55.9611,0 0,106.756483 -308.6469,0" />
  </g>
</svg>
