<?xml version="1.0" encoding="UTF-8" standalone="no"?>
<!-- Created with Inkscape (http://www.inkscape.org/) -->

<svg
   xmlns:dc="http://purl.org/dc/elements/1.1/"
   xmlns:cc="http://creativecommons.org/ns#"
   xmlns:rdf="http://www.w3.org/1999/02/22-rdf-syntax-ns#"
   xmlns:svg="http://www.w3.org/2000/svg"
   xmlns="http://www.w3.org/2000/svg"
   xmlns:sodipodi="http://sodipodi.sourceforge.net/DTD/sodipodi-0.dtd"
   xmlns:inkscape="http://www.inkscape.org/namespaces/inkscape"
   width="297mm"
   height="210mm"
   viewBox="0 0 297 210"
   id="svg3360"
   version="1.1"
   inkscape:version="0.91 r13725"
   sodipodi:docname="warentest.svg">
  <defs
     id="defs3362">
    <clipPath
       clipPathUnits="userSpaceOnUse"
       id="clipPath4296">
      <rect
         style="fill:#b2b2b2;fill-opacity:1"
         id="rect4298"
         width="669.25159"
         height="322.6749"
         x="250.05005"
         y="-77.741402" />
    </clipPath>
    <clipPath
       clipPathUnits="userSpaceOnUse"
       id="clipPath4296-7">
      <rect
         style="fill:#b2b2b2;fill-opacity:1"
         id="rect4298-9"
         width="669.25159"
         height="322.6749"
         x="250.05005"
         y="-77.741402" />
    </clipPath>
    <clipPath
       clipPathUnits="userSpaceOnUse"
       id="clipPath4343">
      <rect
         style="fill:#b2b2b2;fill-opacity:1"
         id="rect4345"
         width="560.77399"
         height="270.27469"
         x="-375.99438"
         y="213.6772" />
    </clipPath>
  </defs>
  <sodipodi:namedview
     inkscape:document-units="mm"
     pagecolor="#ffffff"
     bordercolor="#666666"
     borderopacity="1.0"
     inkscape:pageopacity="0.0"
     inkscape:pageshadow="2"
     inkscape:zoom="0.86831672"
     inkscape:cx="349.30701"
     inkscape:cy="388.34297"
     inkscape:current-layer="layer1"
     id="namedview3364"
     showgrid="false"
     inkscape:window-width="1918"
     inkscape:window-height="1053"
     inkscape:window-x="0"
     inkscape:window-y="25"
     inkscape:window-maximized="0" />
  <metadata
     id="metadata3366">
    <rdf:RDF>
      <cc:Work
         rdf:about="">
        <dc:format>image/svg+xml</dc:format>
        <dc:type
           rdf:resource="http://purl.org/dc/dcmitype/StillImage" />
        <dc:title></dc:title>
      </cc:Work>
    </rdf:RDF>
  </metadata>
  <g
     inkscape:label="Layer 1"
     inkscape:groupmode="layer"
     id="layer1">
    <g
       id="g4327"
       transform="matrix(0.2142526,0,0,0.2142526,75.834624,108.6103)"
       clip-path="url(#clipPath4343)"
       style="fill:#d4021d;fill-opacity:1">
      <path
         style="fill:#d4021d;fill-opacity:1"
         d="m -273.5008,552.59993 c -2.23936,-0.49157 -3.90525,-1.16707 -5.74746,-2.33056 l -1.51413,-0.95628 -1.39553,-1.45554 -1.39554,-1.4555 -1.12151,-2.26667 -1.12151,-2.26667 -0.56754,-2.78497 -0.56754,-2.78499 0.0832,-1.7302 0.0832,-1.73019 4.79778,-0.49064 c 2.63877,-0.26983 5.24227,-0.4605 5.78555,-0.4237 l 0.98778,0.0669 0.17901,2.00268 0.17901,2.00265 0.44557,1.53269 0.44556,1.5327 1.00119,1.16967 1.00119,1.16967 1.33757,0.51457 1.33757,0.51458 1.69333,-0.0209 1.69333,-0.0209 1.08254,-0.36029 1.08254,-0.36028 0.94526,-0.82996 0.94526,-0.82996 0.4407,-1.32738 c 0.24239,-0.73008 0.5642,-2.2799 0.71515,-3.44407 l 0.27446,-2.11666 0.009,-20.955 0.009,-20.95495 6.22562,0 6.22562,0 -0.10758,22.64834 -0.10757,22.64833 -0.58001,2.54869 -0.58002,2.54869 -1.0614,2.10798 -1.06141,2.10797 -2.00718,2.00525 -2.00718,2.00524 -2.39889,1.1511 -2.39889,1.1511 -2.17533,0.44199 -2.17532,0.44199 -3.61023,-0.0226 -3.61023,-0.0226 -1.69334,-0.37168 z m 48.26,0.0402 c -0.77611,-0.19843 -2.14169,-0.69608 -3.03463,-1.10583 l -1.62352,-0.74507 -1.50497,-1.42333 -1.50495,-1.42333 -0.75824,-1.39314 -0.75824,-1.39313 -0.61198,-2.20825 -0.61198,-2.20825 -0.10752,-16.43944 -0.10753,-16.43945 5.94678,0 5.94678,0 0.006,12.20611 0.006,12.20612 0.26412,3.39476 0.26413,3.39477 0.42595,1.01944 0.42595,1.01945 0.91777,0.91778 0.91777,0.91776 0.99631,0.42065 0.9963,0.42063 1.83445,0.0149 1.83444,0.015 1.47327,-0.49566 1.47327,-0.49567 1.43356,-1.28888 1.43356,-1.28891 0.54978,-1.07764 0.54977,-1.07766 0.29973,-1.91745 0.29972,-1.91745 0.1636,-13.19389 0.16361,-13.19388 5.88729,0 5.88729,0 0,22.01928 0,22.01932 -5.52975,-0.0765 -5.52975,-0.0765 -0.008,-3.01334 -0.008,-3.01334 -1.51757,1.63917 -1.51757,1.63915 -1.76462,1.14909 -1.76462,1.1491 -1.97556,0.76225 -1.97555,0.76229 -3.38667,0.09 -3.38667,0.0901 -1.41111,-0.36079 z m 176.057006,-0.18559 c -2.402586,-0.62978 -3.317381,-1.07101 -5.662309,-2.73118 l -1.760869,-1.24666 -1.428919,-1.75178 -1.42892,-1.75178 -0.960571,-1.97937 -0.960572,-1.97936 -0.719949,-2.67731 -0.719921,-2.6773 -0.409956,-3.10444 -0.409956,-3.10445 -0.186944,-4.51555 -0.186915,-4.51556 0.334348,-4.23333 0.334349,-4.23333 0.548217,-2.84774 c 0.941521,-4.89085 2.453273,-8.68948 4.640749,-11.66094 l 1.24079,-1.6855 1.479973,-1.16985 c 0.813986,-0.64341 2.18505,-1.52341 3.046843,-1.95555 l 1.56687,-0.78571 1.852479,-0.46014 1.852478,-0.46013 2.9707,0 2.970727,0 2.212566,0.56588 2.212566,0.56588 1.3635,0.77468 c 2.029517,1.15309 3.650517,2.54267 5.123011,4.39164 l 1.316567,1.65319 0.969715,2.02159 0.969688,2.02158 0.731322,2.53159 c 0.402195,1.39237 0.930826,3.67838 1.174694,5.08 l 0.443399,2.54841 0.146756,6.83735 0.146755,6.83734 -0.331046,3.18155 c -0.421894,4.0544 -0.974683,6.7654 -2.029856,9.95488 l -0.840316,2.54 -1.168203,2.05102 -1.168202,2.05099 -1.428553,1.47921 -1.428524,1.47919 -1.381393,0.9098 c -1.589786,1.04704 -3.913802,1.9703 -5.91487,2.34978 l -1.388562,0.26334 -2.854254,-0.0155 -2.854255,-0.0155 -2.025227,-0.53086 z m 7.951894,-9.98455 1.128889,-0.61194 0.90201,-1.50898 0.902039,-1.50899 0.423813,-1.87235 c 0.233088,-1.0298 0.572149,-3.01537 0.753421,-4.41237 l 0.329635,-2.54 0.0079,-8.04334 0.0079,-8.04333 -0.349815,-2.82222 -0.349814,-2.82222 -0.671238,-2.11667 -0.671237,-2.11667 -0.722348,-1.05749 -0.722348,-1.05751 -1.048709,-0.52712 c -0.576806,-0.28991 -1.498995,-0.60866 -2.0493,-0.70833 l -1.000535,-0.18122 -1.406031,0.41755 -1.406031,0.41755 -0.895096,0.92495 -0.895068,0.92496 -0.574322,1.30036 c -0.315863,0.71519 -0.765246,2.20796 -0.998587,3.31724 l -0.424265,2.0169 -0.285185,3.73829 -0.285158,3.73832 0,4.79778 0,4.79777 0.288403,3.81 0.288403,3.81 0.457257,1.83445 c 0.251488,1.00894 0.680353,2.35551 0.953064,2.99237 l 0.495836,1.15796 0.903704,1.02926 0.903732,1.02927 1.311318,0.41001 1.311345,0.41001 1.128889,-0.15615 1.128889,-0.15615 1.128889,-0.61195 z m 39.1415706,9.97498 -2.0628751,-0.5404 -1.3486836,-0.73406 c -0.7417647,-0.40372 -2.0715959,-1.30141 -2.955149,-1.99489 l -1.6064659,-1.26088 -1.30206,-1.75302 -1.302089,-1.75303 -0.815255,-1.77811 -0.815284,-1.77809 -0.698274,-2.59636 -0.698246,-2.59633 -0.409956,-3.10444 -0.409956,-3.10445 -0.186944,-4.51555 -0.186916,-4.51556 0.334349,-4.23333 0.334349,-4.23333 0.548216,-2.84774 c 0.941522,-4.89085 2.453273,-8.68948 4.64075,-11.66094 l 1.2407898,-1.6855 1.4946207,-1.18835 1.4946208,-1.18834 1.6933334,-0.79313 c 0.9313333,-0.43622 2.4502534,-0.98853 3.3754061,-1.22735 l 1.68207269,-0.43421 2.99999411,0 3.0000223,0 2.1828479,0.55828 2.1828192,0.55828 1.460642,0.77571 1.460641,0.77571 2.275332,2.26434 2.275304,2.26435 1.169218,2.39889 1.16919,2.39888 0.728585,2.53665 c 0.400728,1.39515 0.942877,3.74466 1.204807,5.22111 l 0.47625,2.68447 0,8.60777 0,8.60778 -0.47625,2.68447 c -0.26193,1.47645 -0.804079,3.82595 -1.204807,5.22111 l -0.728585,2.53665 -1.112491,2.25777 -1.112492,2.25778 -1.203142,1.45855 c -1.396802,1.69337 -3.50551,3.42398 -5.24764,4.30683 l -1.222276,0.61939 -2.1389908,0.54706 -2.1389623,0.54706 -2.9887616,-0.0155 -2.98873347,-0.0155 -2.06287523,-0.54043 z m 7.9335492,-9.91771 1.072896,-0.54379 0.8419819,-1.3274 0.8419818,-1.32738 0.4281875,-1.41111 c 0.2355145,-0.77611 0.6231185,-2.80811 0.8613423,-4.51555 l 0.4331827,-3.10445 0.01411,-8.18444 0.01411,-8.18445 -0.348064,-2.82222 -0.348065,-2.82222 -0.6712373,-2.11667 -0.6712374,-2.11667 -0.7223478,-1.05749 -0.7223478,-1.05751 -1.0487096,-0.52453 c -0.5768058,-0.2885 -1.4725509,-0.60542 -1.9905698,-0.70426 l -0.941832,-0.17972 -1.2860867,0.32385 -1.28611498,0.32384 -1.19092138,1.15569 -1.19092134,1.15569 -0.6169943,1.67126 -0.6169942,1.67125 -0.4191847,2.7032 -0.4191847,2.70318 -0.1679222,6.77333 -0.1679222,6.77333 0.3250918,4.37445 0.32512,4.37444 0.3981309,1.69579 c 0.2189762,0.93269 0.6482362,2.27926 0.9539111,2.99238 l 0.5557803,1.29661 0.9037038,1.02926 0.90373199,1.02927 1.31131741,0.41001 1.3113456,0.41001 1.1288889,-0.1616 1.1288889,-0.1616 1.0728961,-0.54378 z m 40.4498962,9.93253 -1.939403,-0.52271 -1.729486,-0.87887 -1.729458,-0.87884 -1.570002,-1.33313 c -1.973636,-1.67586 -3.797328,-3.84539 -4.966716,-5.9086 l -0.906272,-1.59896 -0.845735,-2.55722 -0.845764,-2.55721 -0.43784,-2.54 c -0.240848,-1.397 -0.573447,-4.3815 -0.739168,-6.63223 l -0.3013,-4.09222 0.180142,-3.52778 c 0.400078,-7.83446 1.476756,-12.86371 3.715766,-17.35666 l 0.984504,-1.97556 1.507378,-1.86736 1.507405,-1.86736 1.782149,-1.35033 1.78212,-1.35033 2.070608,-0.96495 2.070608,-0.96496 1.880503,-0.39856 1.880504,-0.39857 2.988733,-0.005 2.988762,-0.005 2.182848,0.55828 2.182819,0.55828 1.449324,0.78227 1.449296,0.78228 1.704651,1.58982 1.704678,1.58982 1.065559,1.79685 1.065558,1.79684 0.698331,2.2018 c 0.384076,1.21098 0.69833,2.50495 0.69833,2.87548 l 0,0.67369 -1.199444,0.1635 c -2.529727,0.34481 -8.570384,0.99497 -9.267049,0.99742 l -0.729855,0.003 -0.451866,-1.62528 -0.451866,-1.62528 -0.653147,-0.98527 -0.653147,-0.98528 -1.386332,-0.68721 -1.386361,-0.68721 -1.755027,0.0165 -1.754999,0.0165 -1.474131,0.80232 -1.474131,0.80232 -0.82423,0.99727 c -1.670417,2.02108 -2.532465,4.59548 -3.216233,9.60504 -0.222476,1.62984 -0.406965,3.25055 -0.410013,3.60158 l -0.0056,0.63825 1.562777,-1.27288 c 1.837126,-1.4964 3.093636,-2.1728 5.191224,-2.79471 l 1.53289,-0.45446 2.429482,0 2.429482,0 1.682073,0.42839 1.682072,0.42838 1.834445,0.90794 1.834444,0.90791 2.405324,2.40315 2.405295,2.40312 1.053959,2.11667 1.053931,2.11666 0.582987,2.25778 0.582986,2.25778 0.0127,3.52778 0.0127,3.52778 -0.600033,2.50125 -0.600004,2.50125 -1.187422,2.29652 -1.187422,2.29653 -2.179546,2.1649 -2.179517,2.1649 -2.345775,1.15629 -2.345803,1.15629 -1.975556,0.41335 -1.975555,0.41337 -3.104445,-0.0121 -3.104444,-0.0121 -1.939431,-0.52274 z m 8.853876,-9.8979 0.987778,-0.50261 0.885613,-0.94198 c 1.179125,-1.25408 1.671744,-2.2917 2.084804,-4.39126 l 0.344057,-1.74876 -0.133096,-3.46874 -0.133067,-3.46874 -0.609205,-1.5746 -0.609177,-1.57463 -0.986282,-1.15223 -0.986254,-1.15226 -1.302992,-0.63073 -1.302963,-0.63077 -1.897945,0 -1.897944,0 -1.503144,0.8176 -1.503144,0.81762 -0.912255,1.25665 -0.912284,1.25665 -0.521264,1.70669 -0.521236,1.70668 0.01185,2.82222 0.01185,2.82222 0.625546,2.02735 0.625517,2.02737 0.914796,1.19174 c 0.503145,0.65543 1.386416,1.57133 1.962827,2.0353 l 1.048032,0.84359 1.350857,0.3665 1.350857,0.36646 1.27,-0.16233 1.27,-0.16237 0.987777,-0.50263 z m -238.760012,-12.68764 0,-22.01334 5.50334,0 5.50333,0 0,2.99387 0,2.99384 1.28956,-1.4343 1.28956,-1.43429 2.06662,-1.38224 2.06662,-1.38224 1.79438,-0.63354 1.79437,-0.63354 3.25284,-0.14075 3.25283,-0.14075 1.82717,0.46059 1.82716,0.4606 1.74828,0.85193 1.74827,0.85194 1.26721,1.23157 1.2672,1.23158 0.8845,1.75218 0.88449,1.75218 0.40391,2.11108 0.40392,2.11105 0,16.20297 0,16.20294 -5.91109,0 -5.9111,0 -0.0861,-15.31055 -0.0861,-15.31056 -0.75154,-1.60322 -0.75154,-1.60319 -1.16775,-0.84591 -1.16776,-0.84593 -1.43572,-0.3079 -1.43573,-0.30791 -1.70964,0.31002 -1.70963,0.31002 -1.06619,0.54393 -1.06618,0.5439 -1.03202,1.03203 -1.03201,1.032 -0.65392,1.43552 -0.65392,1.43553 -0.29712,2.39149 -0.29711,2.39147 0,12.35464 0,12.35462 -5.92667,0 -5.92667,0 0,-22.01333 z m 51.64667,0 0,-22.01334 5.92667,0 5.92667,0 0,22.01334 0,22.01333 -5.92667,0 -5.92667,0 0,-22.01333 z m 19.6255,20.955 c 0.34041,-2.02687 1.28347,-5.23912 2.10466,-7.1689 l 0.82669,-1.9427 1.31546,-2.04115 c 0.7235,-1.12262 2.21808,-3.12064 3.32129,-4.44003 l 2.00582,-2.39889 5.085292,-4.93708 c 2.79691,-2.71538 6.405908,-6.27138 8.019994,-7.90222 l 2.934699,-2.96514 1.096716,-1.68163 1.096712,-1.68159 0.592786,-1.95165 0.592807,-1.95162 -0.156774,-2.07291 -0.156775,-2.0729 -0.76647,-1.40824 -0.766465,-1.40825 -1.019858,-0.7015 c -0.560922,-0.38583 -1.400858,-0.84882 -1.866525,-1.02887 l -0.846666,-0.32736 -2.116667,-0.004 -2.116667,-0.004 -1.27,0.46842 -1.27,0.46843 -1.060148,1.03473 -1.060151,1.03473 -0.549743,1.46932 c -0.302359,0.80813 -0.635404,2.11506 -0.7401,2.90428 l -0.190353,1.43496 -1.021974,-0.0203 c -0.56209,-0.0113 -3.18098,-0.23512 -5.81975,-0.49744 l -4.79778,-0.47696 0.0784,-1.26646 c 0.0431,-0.69655 0.33561,-2.21323 0.65001,-3.3704 l 0.57163,-2.10395 1.03167,-1.98827 1.03167,-1.98828 1.71912,-1.7062 1.71912,-1.7062 2.38476,-1.17016 2.38477,-1.17016 1.834445,-0.50394 1.834444,-0.50393 4.797778,-0.006 4.797778,-0.006 1.814057,0.5009 c 0.997723,0.2755 2.648723,0.90505 3.6689,1.39901 l 1.854821,0.89811 2.324298,2.3001 2.324269,2.30011 0.841192,1.80421 0.841191,1.80423 0.468207,1.83444 0.468207,1.83444 -0.149352,3.10445 -0.149352,3.10444 -0.619732,1.97556 -0.619704,1.97556 -1.163517,2.24747 -1.163518,2.24748 -1.599099,2.12697 c -2.088219,2.77754 -3.708457,4.4536 -8.999757,9.30986 -4.860315,4.46069 -6.703066,6.34658 -7.941801,8.12766 l -0.834204,1.19944 11.584681,0 11.584658,0 0,5.36223 0,5.36222 -20.473899,0 -20.473901,0 0.17774,-1.05833 z m -19.6255,-54.25723 0,-5.36222 5.92667,0 5.92667,0 0,5.36222 0,5.36223 -5.92667,0 -5.92667,0 0,-5.36223 z m -234.24445,-141.11111 0,-129.25778 260.49112,0 260.49112,0 0,129.25778 0,129.25778 -260.49112,0 -260.49112,0 0,-129.25778 z m 117.56351,94.25915 3.3196,-0.56751 2.56456,-0.87408 2.56456,-0.87408 2.5159,-1.29208 2.5159,-1.29208 2.14076,-1.60046 2.14077,-1.60047 2.22201,-2.2672 2.22201,-2.2672 1.79758,-2.50033 1.79758,-2.50033 1.9684,-3.95111 1.9684,-3.95111 1.285,-3.95111 1.28501,-3.95111 0.9463,-4.51556 0.94631,-4.51555 0.20627,0.84666 c 0.81891,3.36115 1.11275,4.38021 2.00835,6.96499 l 1.00925,2.91279 1.53823,3.07038 c 2.21369,4.41861 4.30889,7.48086 8.00046,11.69309 l 1.56106,1.78124 2.68111,2.28964 2.68112,2.28965 2.68111,1.75944 c 3.6328,2.38397 6.28771,3.76592 10.26008,5.34064 l 3.34565,1.32627 3.80089,0.95738 3.80089,0.95737 3.23959,0.42467 3.23958,0.42468 4.72018,0 4.72017,0 2.39148,-0.29605 c 1.31532,-0.16283 3.57964,-0.5424 5.03183,-0.8435 l 2.64033,-0.54745 3.36761,-1.12594 3.36761,-1.12595 3.02317,-1.54739 c 3.67011,-1.87853 6.37329,-3.65933 9.72588,-6.40722 l 2.53346,-2.0765 2.1935,-2.40061 c 2.97637,-3.25741 5.59215,-6.81214 7.99425,-10.86384 l 2.00783,-3.38666 1.51258,-3.38395 c 3.37089,-7.54136 6.13708,-17.57728 7.21566,-26.17883 l 0.16809,-1.34056 -15.61192,0 -15.61192,0 -0.32938,3.03389 -0.32937,3.03389 -0.70323,2.62648 -0.70323,2.62648 -0.96763,2.09432 -0.96763,2.09431 -1.48287,2.14505 -1.48287,2.14504 -1.61746,1.45972 c -0.88961,0.80284 -2.31667,1.88145 -3.17126,2.39691 l -1.55379,0.9372 -2.06999,0.74731 -2.06998,0.74731 -4.09223,0.009 -4.09222,0.009 -2.11667,-0.66093 -2.11666,-0.66093 -1.87047,-0.97867 -1.87048,-0.97866 -1.8007,-1.4853 -1.8007,-1.48531 -1.59395,-2.09621 -1.59394,-2.09622 -1.00848,-1.99698 c -2.71258,-5.37142 -4.10645,-11.27153 -4.57877,-19.38137 l -0.19313,-3.31611 39.41142,0 39.41142,0 0,-8.97823 0,-8.97822 -0.42966,-4.639 -0.42967,-4.63899 -0.84074,-5.08876 c -1.86617,-11.29533 -4.68574,-20.3135 -9.04167,-28.91902 l -1.92853,-3.81 -2.21937,-3.38667 -2.21937,-3.38667 -2.13821,-2.54 c -10.22357,-12.14469 -22.87489,-18.48175 -38.89056,-19.48031 l -2.96333,-0.18476 -3.90849,0.31569 -3.90849,0.31569 -2.90173,0.55998 c -7.56465,1.45982 -14.21079,4.29047 -20.50608,8.73368 l -2.59251,1.82979 -2.94709,2.81375 -2.94708,2.81375 -2.29871,2.8785 -2.29871,2.87849 -1.80312,2.90176 c -4.85864,7.81902 -8.4219,16.89541 -10.73705,27.34955 l -0.84376,3.81 -0.70369,4.93889 c -0.85838,6.02455 -1.29349,11.39994 -1.29349,15.97977 l 0,3.44917 0.4208,5.17275 c 0.23144,2.84502 0.67594,7.64374 0.98777,10.66384 0.31184,3.02009 0.56698,5.52834 0.56698,5.57389 0,0.0455 -5.715,0.0828 -12.7,0.0828 l -12.7,0 0,10.14942 0,10.14941 -0.59122,1.58018 -0.59122,1.58017 -0.97065,0.97066 -0.97066,0.97065 -1.01259,0.42309 -1.01259,0.42309 -1.60346,0 -1.60345,0 -1.47232,-0.73369 -1.47232,-0.73369 -0.83838,-1.21854 -0.83839,-1.21855 -0.42581,-1.63484 -0.42583,-1.63484 0,-41.70959 0,-41.7096 20.32,0 20.32,0 0,-16.22777 0,-16.22778 -20.32,0 -20.32,0 0,-25.25889 0,-25.25889 -14.25222,0 -14.25222,0 -8.5e-4,4.16278 -8.5e-4,4.16277 -0.30092,3.24556 c -0.1655,1.78505 -0.60813,4.91663 -0.98362,6.95907 l -0.6827,3.71351 -0.99719,3.05982 -0.9972,3.05982 -1.51806,3.10445 -1.51807,3.10444 -1.44075,1.97556 -1.44074,1.97555 -2.18552,2.21096 -2.18552,2.21096 -2.25778,1.49709 c -2.83626,1.88068 -4.43118,2.67824 -7.56683,3.78387 l -2.48683,0.87685 -2.87539,0.58799 -2.87539,0.58799 -3.60063,0.16209 -3.60063,0.16208 0.0729,16.1145 0.0726,16.11451 14.88722,0.073 14.88722,0.0731 2.4e-4,40.56695 2.3e-4,40.56695 0.28198,3.10445 c 0.15508,1.70744 0.55111,4.50144 0.88006,6.20889 l 0.5981,3.10444 1.09916,3.38667 1.09916,3.38667 1.66937,3.38666 1.66936,3.38667 1.50173,2.25014 1.50172,2.25014 2.68111,2.80596 2.68112,2.80595 2.15187,1.60235 2.15187,1.60235 2.78702,1.42519 2.78701,1.42518 2.78175,0.88548 2.78175,0.88548 2.29825,0.38605 2.29825,0.38606 4.41696,0.0287 4.41695,0.0287 3.3196,-0.56752 z m 69.67196,-103.0786 c 0.48042,-8.53261 2.19104,-15.42988 5.00506,-20.18061 l 0.94059,-1.58794 1.86169,-1.9149 1.8617,-1.9149 2.08941,-0.97989 2.08942,-0.97989 2.17185,-0.29179 2.17185,-0.29179 2.09073,0.26508 2.09072,0.26508 1.49311,0.58853 c 0.82121,0.32369 2.17499,1.04113 3.00839,1.59432 l 1.51529,1.00579 1.23202,1.45173 c 4.09138,4.82106 6.22881,11.49207 6.94899,21.68818 l 0.29665,4.19977 -0.16701,0.27023 -0.16701,0.27023 -18.36405,0 -18.36406,0 0.19466,-3.45723 z m 154.779352,102.68688 2.924782,-0.7409 2.719662,-1.13584 c 3.351587,-1.39978 5.906263,-2.88861 9.2107462,-5.36794 l 2.5400001,-1.90574 2.6000852,-2.63573 c 3.1310581,-3.17399 4.99290636,-5.46204 7.1970338,-8.84461 l 1.6550922,-2.54 1.8127699,-3.66889 1.8127698,-3.66889 1.0057272,-2.94127 c 1.3633876,-3.98727 2.3352476,-7.92259 2.8499646,-11.54009 l 0.429175,-3.01642 -0.0045,-4.65667 c -0.0045,-4.90041 -0.0885,-6.0728 -0.750655,-10.49131 -1.38667,-9.2534 -5.0892851,-17.52092 -10.7969475,-24.10833 l -1.9800147,-2.2852 -2.2097436,-1.84028 c -5.4568516,-4.54448 -11.6581492,-7.69575 -19.0226532,-9.66662 l -2.54508,-0.68111 -5.419909,-0.87759 c -2.980916,-0.48268 -6.978086,-1.19322 -8.88255,-1.57899 l -3.462669,-0.70139 -2.463997,-0.86152 -2.463998,-0.86151 -1.834445,-1.01284 -1.834444,-1.01284 -1.713597,-1.71412 -1.713597,-1.71413 -0.723505,-1.55222 -0.723505,-1.55222 -0.314565,-1.49556 -0.314565,-1.49556 0.0042,-1.74999 0.0042,-1.75 0.428865,-1.81952 0.428865,-1.81952 0.907514,-1.84937 0.907514,-1.84937 1.834444,-1.85762 1.834445,-1.85763 1.552222,-0.75041 1.552222,-0.7504 1.678997,-0.30945 1.679024,-0.30944 2.569352,0.30302 2.569379,0.30302 1.614876,0.5556 c 0.888181,0.30558 2.405408,0.97209 3.371624,1.48113 l 1.756749,0.92552 2.116666,2.13569 2.116667,2.13568 1.235767,2.18046 1.235738,2.18046 0.791831,2.32052 c 0.435525,1.27628 1.002227,3.33652 1.259388,4.5783 l 0.46753,2.25777 0.155956,2.89278 0.155956,2.89278 14.3528063,0 14.3528067,0 0,-8.60778 0,-8.60778 0.4233334,-0.0313 c 0.2328333,-0.0172 0.6773333,-0.0314 0.9877778,-0.0314 0.3104445,0 2.7234448,0.0141 5.3622228,0.0314 l 4.797778,0.0313 0,39.87804 0,39.87802 0.29701,3.79587 0.297011,3.79585 0.686477,3.4279 0.686449,3.4279 1.002228,3.06321 1.002228,3.06322 1.507603,3.13801 1.507602,3.13802 1.577566,2.36531 c 2.855525,4.28146 6.64639,8.14168 10.600804,10.79481 l 2.001661,1.34297 2.610584,1.23465 2.610555,1.23466 2.53159,0.73186 c 1.392372,0.40253 3.678372,0.91787 5.08,1.14521 l 2.548411,0.41334 4.001233,0.001 4.001263,10e-4 2.166845,-0.30139 c 3.058556,-0.4254 6.053216,-1.22526 9.151028,-2.44417 l 2.66923,-1.05029 2.476782,-1.5593 2.476811,-1.5593 2.151097,-1.83433 2.151098,-1.83434 2.053816,-2.54011 c 2.496933,-3.08815 3.728805,-5.00258 5.515526,-8.57163 3.397447,-6.78653 5.539683,-14.37633 6.781156,-24.02514 l 0.56283,-4.37445 0.14173,-4.37444 c 0.078,-2.40595 0.1955,-4.9777 0.26123,-5.715 l 0.11952,-1.34056 -15.508931,0 -15.508931,0 -0.0028,10.37167 -0.0028,10.37166 -0.658509,1.41112 -0.658537,1.41111 -1.136284,1.02427 -1.136283,1.02427 -1.052576,0.34739 -1.052576,0.34738 -1.800719,-0.11466 -1.800747,-0.11467 -1.202549,-0.84519 -1.202577,-0.8452 -0.919903,-1.77701 -0.919904,-1.77701 0,-42.5909 0,-42.5909 20.17889,0 20.178889,0 0,-16.22778 0,-16.22777 -20.177365,0 -20.177394,0 -0.07205,-25.18834 -0.07208,-25.18833 -14.181667,-0.0732 -14.181667,-0.0732 -0.0062,0.63761 c -0.0034,0.35069 -0.125166,3.17762 -0.270623,6.28206 l -0.26447,5.64445 -0.4434,2.96333 c -0.8636,5.77171 -2.440121,11.29345 -4.40515,15.42899 l -1.09553,2.30567 -1.75054,2.61708 -1.75054,2.61708 -2.176921,2.17692 -2.176921,2.17693 -2.072556,1.39818 C 8.9817286,287.48 6.7983163,288.5744 3.6946055,289.6691 l -2.4868294,0.87711 -2.875393,0.61328 -2.875393,0.61328 -7.0555561,0.16464 -7.055555,0.16463 -0.05165,2.21534 c -0.02839,1.21844 -0.09404,2.25774 -0.145853,2.30957 -0.05182,0.0518 -1.552589,-0.85546 -3.33502,-2.01619 l -3.240814,-2.1104 -3.104445,-1.52781 -3.104444,-1.5278 -3.406225,-1.13688 -3.406225,-1.13688 -3.225997,-0.5421 -3.225998,-0.54211 -3.386667,-0.18683 -3.386667,-0.18682 -3.245555,0.31261 c -3.858232,0.37162 -7.488316,1.09793 -10.583334,2.11752 l -2.257778,0.74378 -3.386667,1.6498 -3.386666,1.64981 -2.533312,1.79213 -2.533311,1.79215 -2.997229,2.96333 -2.997231,2.96333 -1.690452,2.25778 c -5.72827,7.65072 -9.359821,16.76355 -10.66213,26.75501 l -0.434114,3.33057 0,4.79444 0,4.79445 0.301092,2.74054 c 0.576337,5.24584 1.911942,10.30265 3.801045,14.39136 l 0.975944,2.1123 1.606734,2.41478 1.606736,2.41477 2.149814,2.14981 2.149813,2.14982 2.645041,1.76924 c 4.268978,2.85547 7.673114,4.38162 14.157593,6.34715 l 3.269234,0.99095 9.280145,1.99314 9.280144,1.99315 3.245556,1.01573 3.245555,1.01573 2.257778,1.12284 2.257778,1.12284 1.486126,1.14346 1.486154,1.14346 1.245983,1.65753 1.245983,1.65754 0.558433,1.49253 c 0.307142,0.82089 0.714192,2.28432 0.904607,3.25208 l 0.346174,1.75956 -0.1478,3.30761 -0.1478,3.30761 -0.706741,2.18552 -0.706741,2.18551 -0.892753,1.39122 -0.892754,1.39122 -1.268165,1.16897 -1.268194,1.16898 -1.737953,0.82191 -1.737924,0.82191 -2.083309,0.4635 -2.083336,0.4635 -3.291106,-0.13886 -3.291107,-0.13886 -1.834444,-0.59312 -1.834445,-0.59312 -1.834444,-1.0658 -1.834445,-1.06581 -2.257777,-2.27459 -2.257778,-2.27459 -1.363867,-2.28601 -1.363868,-2.28601 -1.092877,-2.65426 -1.092906,-2.65425 -0.701914,-2.70156 c -0.748877,-2.88231 -1.581235,-7.95961 -1.581235,-9.64551 l 0,-1.02211 -14.675556,0 -14.675556,0 0,28.50445 0,28.50444 14.675556,0 14.675556,0 0,-3.22225 0,-3.22225 2.45285,1.41143 c 3.419686,1.96778 5.653955,3.06813 9.557653,4.70706 l 3.370608,1.41511 3.245556,0.97209 c 3.292461,0.98614 6.587293,1.7068 9.889744,2.16313 l 1.822479,0.25183 5.362222,-0.0895 5.362223,-0.0895 2.92481,-0.7409 z"
         id="path4331"
         inkscape:connector-curvature="0" />
      <path
         style="fill:#d4021d;fill-opacity:1"
         d="m -272.081,552.72213 c -0.92655,-0.14588 -2.46647,-0.52541 -3.42203,-0.84342 l -1.73739,-0.57816 -1.65797,-0.97765 -1.65796,-0.97761 -1.44547,-1.55694 -1.44547,-1.55691 -0.85529,-1.6169 c -0.47041,-0.88931 -1.11569,-2.46809 -1.43395,-3.50842 l -0.57866,-1.89148 -0.32266,-2.99681 c -0.17746,-1.64826 -0.27872,-3.03947 -0.22502,-3.09157 0.0537,-0.0521 2.19313,-0.3006 4.7543,-0.55214 2.56116,-0.25157 5.11394,-0.52539 5.67283,-0.60853 l 1.01616,-0.15113 0.17922,1.92834 0.17922,1.92834 0.45022,1.54655 0.45023,1.54658 0.73347,1.07617 0.73347,1.0762 1.28981,0.75824 1.28981,0.75828 2.54,-0.003 2.54,-0.003 1.19913,-0.63855 1.19913,-0.63856 0.71008,-1.07301 0.71009,-1.07301 0.41422,-1.95532 0.41422,-1.95529 0.005,-21.94278 0.005,-21.94117 6.0801,0 6.0801,0 -0.0993,23.07167 -0.0993,23.07167 -0.47235,1.97555 -0.47234,1.97556 -1.12459,2.25778 -1.12459,2.25777 -1.15299,1.19262 c -1.71116,1.76995 -3.33952,3.0233 -5.03117,3.87251 l -1.50873,0.75737 -2.16016,0.55976 -2.16016,0.55976 -3.38667,0.11278 -3.38666,0.11277 -1.68465,-0.26526 z m 47.26354,-0.12883 -1.83445,-0.4162 -1.74827,-0.86029 -1.74828,-0.86033 -1.24364,-1.20867 -1.24364,-1.20868 -0.79538,-1.3572 -0.79537,-1.35721 -0.57502,-1.86913 -0.57501,-1.8691 -0.097,-16.86278 -0.097,-16.86278 5.78043,0 5.78044,0 0.11084,15.31056 0.11085,15.31056 0.39675,1.12888 0.39674,1.12889 1.27671,1.2844 1.2767,1.28439 1.34505,0.37657 1.34505,0.3766 1.83052,-0.14693 1.83052,-0.14695 1.52546,-0.74634 1.52546,-0.74633 1.04482,-1.1565 1.04482,-1.15649 0.53162,-1.20181 0.53162,-1.20182 0.27836,-2.64272 0.27835,-2.64273 0.005,-12.20612 0.005,-12.20611 5.78555,0 5.78556,0 0,22.01334 0,22.01333 -5.36222,0 -5.36223,0 0,-3.20144 0,-3.20142 -2.32833,2.28419 -2.32833,2.28423 -1.83445,0.8855 c -1.00894,0.48706 -2.53294,1.09781 -3.38666,1.35729 l -1.55223,0.47173 -2.54,0.12091 -2.54,0.1209 -1.83444,-0.41619 z m 177.376671,0.1382 c -0.776111,-0.14176 -2.167636,-0.51884 -3.092253,-0.83792 l -1.681169,-0.58019 -1.776787,-1.15765 -1.776815,-1.15761 -1.521375,-1.64327 -1.521347,-1.64324 -0.860524,-1.50402 -0.860495,-1.50399 -0.865181,-2.58239 -0.865152,-2.58236 -0.626618,-3.47952 -0.62659,-3.47952 -0.0048,-8.46666 -0.0048,-8.46667 0.618744,-3.38667 0.618744,-3.38666 0.736742,-2.24625 0.736741,-2.24625 1.171222,-2.25124 1.171222,-2.25123 1.601611,-1.71141 1.60164,-1.7114 1.796824,-1.06739 1.796853,-1.06739 1.975555,-0.61245 1.975556,-0.61245 3.386667,-0.0135 3.386666,-0.0135 1.552223,0.38192 1.552222,0.38192 2.076619,1.00734 2.076648,1.00734 1.740662,1.71519 1.740662,1.71518 1.02791,1.69333 c 1.90596,3.13971 3.239036,7.27218 4.079325,12.64567 l 0.493973,3.15878 0,7.19666 0,7.19667 -0.487539,3.10444 c -0.589082,3.75082 -1.425758,6.9596 -2.48951,9.54744 l -0.792283,1.92747 -1.293763,1.94612 -1.293763,1.94609 -1.464649,1.28877 -1.464648,1.28874 -1.706118,0.84522 c -0.938389,0.46488 -2.398889,1.03418 -3.245556,1.26512 l -1.539438,0.41989 -2.822222,0.12062 -2.822222,0.12062 -1.411111,-0.25775 z m 5.441837,-9.74886 1.049274,-0.43832 0.801963,-0.76112 c 1.082209,-1.02715 1.809129,-2.51373 2.445145,-5.00058 l 0.531227,-2.07707 0.336522,-4.16998 0.336522,-4.17 -0.155025,-7.34732 -0.154997,-7.34732 -0.447152,-2.45685 -0.447153,-2.45684 -0.599271,-1.60174 -0.599299,-1.60175 -0.971635,-1.07547 -0.971634,-1.07548 -1.246943,-0.47622 -1.246971,-0.47622 -1.436059,0.13799 -1.436032,0.13799 -1.179604,0.82751 -1.179604,0.8275 -0.915981,1.82257 -0.916008,1.82257 -0.450004,2.39889 -0.450003,2.39889 -0.147038,9.10965 -0.147037,9.10963 0.340811,3.30815 0.340783,3.30812 0.676402,2.14218 0.676402,2.14221 0.818078,1.12931 0.818078,1.12932 1.229981,0.60883 1.229981,0.60881 1.208503,2.3e-4 1.208504,2.2e-4 1.049274,-0.43829 z m 41.65058293,9.74491 C -1.1457598,552.58362 -2.6081789,552.17186 -3.5981863,551.8125 l -1.8000134,-0.65337 -1.6055623,-1.06573 -1.6055622,-1.06573 -1.5350628,-1.65802 -1.535035,-1.65803 -0.860524,-1.50402 -0.860496,-1.50399 -0.86264,-2.57483 -0.862641,-2.57482 -0.618236,-3.34597 -0.618208,-3.34594 0,-8.74889 0,-8.74889 0.603759,-3.24556 0.603729,-3.24555 0.736149,-2.24625 0.736148,-2.24625 1.169162,-2.26931 1.169191,-2.26931 2.0257625,-2.04378 2.025763,-2.04379 2.0956412,-0.9952 2.0956129,-0.99521 2.38356432,-0.45291 2.38356428,-0.45292 2.5400001,0.17287 2.5400001,0.17286 1.5152512,0.40958 c 2.0746434,0.56078 4.2221854,1.64974 5.9209944,3.00236 l 1.424488,1.13419 1.285748,1.71043 1.285748,1.71043 0.994241,2.09514 0.994241,2.09514 0.697258,2.60263 0.69723,2.60263 0.481528,3.24555 0.481527,3.24556 0.0028,7.05556 0.0028,7.05555 -0.489656,3.10445 c -0.592441,3.75589 -1.429597,6.96377 -2.491627,9.54743 l -0.792283,1.92747 -1.293763,1.94612 -1.293763,1.94609 -1.464649,1.28877 -1.464648,1.28874 -1.706118,0.84522 c -0.938389,0.46488 -2.3988894,1.03418 -3.2455561,1.26512 l -1.5394376,0.41989 -2.8222223,0.12062 -2.8222224,0.12063 -1.44980378,-0.26171 z m 6.11228447,-10.08273 1.4813562,-0.77611 0.8072121,-1.43092 0.8071838,-1.4309 0.5500511,-2.15067 0.5500511,-2.15067 0.3365223,-4.16998 0.336521,-4.17 -0.155024,-7.34732 -0.154997,-7.34732 -0.4471527,-2.45685 -0.4471529,-2.45684 -0.5992707,-1.60174 -0.5992989,-1.60175 -0.9716347,-1.07547 -0.9716347,-1.07548 -1.2469425,-0.47622 -1.2469707,-0.47622 -1.4360596,0.13799 -1.43603141,0.13799 -1.17607648,0.82656 -1.17604831,0.82657 -0.7769578,1.54129 -0.7769578,1.54128 -0.4131733,1.69334 c -0.2272736,0.93133 -0.5459871,2.92659 -0.7082649,4.43388 l -0.2950634,2.74055 0,7.76116 0,7.76117 0.3126458,2.90384 0.3126458,2.90384 0.6731847,2.14218 0.6731847,2.14221 0.8180776,1.12931 0.81807756,1.12932 1.22998093,0.60883 1.22998091,0.60881 1.3083258,2.3e-4 1.3083259,2.2e-4 1.4813845,-0.77611 z m 41.7630766,9.9688 c -2.40555,-0.50995 -4.464643,-1.34259 -6.439098,-2.60376 l -1.604236,-1.02469 -1.735525,-1.76781 -1.735526,-1.76781 -1.144185,-1.93153 -1.144214,-1.93153 -0.980271,-2.96333 -0.98027,-2.96334 -0.514463,-3.10444 -0.514435,-3.10445 0.02342,-7.33777 0.02342,-7.33778 0.60912,-3.32938 0.60912,-3.32938 0.728444,-2.17 c 0.400643,-1.1935 1.254365,-3.18778 1.897183,-4.43173 l 1.16871,-2.26173 2.409247,-2.40725 2.409246,-2.40725 2.398889,-1.1905 2.398889,-1.1905 1.693334,-0.42951 1.693333,-0.4295 2.398889,-0.17052 2.398889,-0.17051 2.071765,0.32375 2.071765,0.32375 1.586089,0.55746 1.586061,0.55746 1.530294,1.01606 c 0.841671,0.55883 2.085594,1.58742 2.76431,2.28575 l 1.233988,1.2697 0.964749,1.73636 c 0.991926,1.78523 1.948265,4.35966 2.274626,6.12304 l 0.185082,1.00002 -4.747712,0.49486 c -2.611233,0.27217 -5.142484,0.56318 -5.624999,0.64668 l -0.877345,0.15183 -0.188468,-1.17871 -0.188496,-1.17872 -0.531114,-1.03243 c -0.292128,-0.56784 -0.891992,-1.37495 -1.333077,-1.79357 l -0.801962,-0.76114 -1.049274,-0.43831 -1.049274,-0.4383 -1.316878,0 -1.316877,0 -1.138625,0.34114 -1.138626,0.34114 -1.617416,1.49746 -1.617443,1.49745 -0.745208,1.86151 -0.745208,1.86151 -0.531932,3.28489 c -0.292552,1.8067 -0.59628,4.01994 -0.674963,4.91837 l -0.14303,1.63347 1.572288,-1.43702 1.572316,-1.43699 1.366323,-0.69237 1.366351,-0.69238 1.769279,-0.41715 1.769308,-0.41712 1.552222,0 1.552222,0 1.862441,0.3948 1.862441,0.39477 1.842883,0.89857 1.842855,0.89853 1.476135,1.21088 c 0.811869,0.66599 2.034032,1.89094 2.715881,2.72217 l 1.239717,1.51133 0.968361,1.9768 0.968333,1.9768 0.501876,1.83444 0.501847,1.83445 0.0051,4.23333 0.0051,4.23333 -0.644341,2.24505 -0.644313,2.24508 -1.027346,1.98826 -1.027317,1.98828 -2.288766,2.28546 -2.288766,2.28544 -2.10168,1.02641 -2.101681,1.02642 -1.693334,0.44105 -1.693333,0.44103 -2.963333,0.12065 -2.963334,0.12068 -1.834444,-0.3889 z m 7.337778,-9.77996 1.27,-0.57489 0.801963,-0.75949 c 0.441085,-0.41769 1.053761,-1.24917 1.361553,-1.84771 l 0.55959,-1.08824 0.397425,-1.87509 0.397454,-1.87508 0,-2.25778 0,-2.25778 -0.405497,-1.91358 -0.405497,-1.91358 -0.774644,-1.42327 -0.774643,-1.42331 -1.058164,-0.83806 -1.058136,-0.83808 -1.313942,-0.44769 -1.31397,-0.44772 -1.613832,0.14633 -1.613859,0.14634 -1.144637,0.58397 -1.144637,0.58395 -1.142069,1.29746 -1.142069,1.29743 -0.473851,1.32492 -0.473851,1.32489 -0.142437,2.82222 -0.142438,2.82223 0.310811,1.66347 0.310812,1.66347 0.694577,1.51715 0.694577,1.51714 1.41605,1.37927 1.416022,1.37928 1.207572,0.42726 1.207545,0.42728 1.411111,0.0161 1.411111,0.0161 1.27,-0.57488 z m -238.47779,-12.95939 0,-22.01334 5.36223,0 5.36222,0 0,3.10445 c 0,1.70744 0.0355,3.10444 0.0789,3.10444 0.0434,0 1.02768,-0.9293 2.18723,-2.06513 l 2.10826,-2.06516 1.3467,-0.78749 c 0.74069,-0.43312 2.22208,-1.09192 3.29198,-1.464 l 1.94529,-0.6765 2.49357,-0.16297 2.49357,-0.16297 2.19009,0.43351 2.19009,0.4335 1.78056,0.84979 1.78056,0.84978 1.27103,1.11881 1.27103,1.11878 0.88785,1.66579 0.88786,1.66579 0.48466,1.67036 0.48466,1.67033 0.10829,16.86278 0.10828,16.86278 -5.80525,0 -5.80526,0 0,-13.34239 0,-13.34243 -0.29768,-2.39146 -0.29768,-2.3915 -0.79059,-1.41111 -0.79059,-1.41111 -1.36029,-0.84667 -1.36029,-0.84666 -2.41977,0.006 -2.41978,0.005 -1.30454,0.59772 -1.30455,0.59772 -1.18682,1.07222 -1.18683,1.07222 -0.66104,1.30449 -0.66104,1.30451 -0.32842,1.53563 -0.32842,1.53563 -0.14822,13.47611 -0.14822,13.47611 -5.75484,0 -5.75484,0 0,-22.01333 z m 51.92889,0 0,-22.01334 5.78556,0 5.78556,0 0,22.01334 0,22.01333 -5.78556,0 -5.78556,0 0,-22.01333 z m 19.47334,21.35293 c 0,-0.9468 1.02444,-4.8558 1.74995,-6.67738 1.01068,-2.53757 2.15449,-4.49983 4.27718,-7.33777 l 2.00539,-2.68112 9.210633,-9.17222 9.210628,-9.17222 1.031336,-2.11667 1.03135,-2.11666 0.271949,-1.69915 0.271949,-1.69918 -0.254733,-1.54639 c -0.345299,-2.09632 -0.669031,-2.85506 -1.737228,-4.07167 l -0.909407,-1.03576 -1.121938,-0.57237 -1.121941,-0.57237 -2.023251,-0.15302 -2.023251,-0.15302 -1.545774,0.44937 -1.545776,0.44937 -1.151831,0.98593 -1.15183,0.98592 -0.619851,1.44088 -0.619847,1.44087 -0.161595,1.36443 c -0.08888,0.75043 -0.24303,1.49617 -0.342564,1.65724 l -0.180967,0.2928 -5.357071,-0.53681 c -2.94639,-0.29526 -5.45232,-0.54088 -5.56873,-0.54585 l -0.21167,-0.009 0,-0.80152 c 0,-0.44084 0.25602,-1.80609 0.56893,-3.03389 l 0.56893,-2.23237 0.98321,-2.07522 0.9832,-2.07522 1.90509,-1.89958 1.90508,-1.89959 2.11667,-1.03485 2.116668,-1.03485 2.257778,-0.60466 2.257778,-0.60467 4.233333,-0.0214 4.233334,-0.0214 2.245058,0.64127 2.245069,0.64128 1.988256,1.04044 1.988284,1.04044 1.865009,1.85817 1.865009,1.85816 1.039707,2.10369 1.039678,2.10369 0.427793,2.39104 0.42782,2.39103 -0.187678,2.11667 -0.187649,2.11667 -0.51404,2.01213 -0.514067,2.0121 -1.123132,2.22123 c -0.6177,1.22166 -1.795216,3.17339 -2.616652,4.33719 l -1.493548,2.11602 -2.836333,2.82925 c -1.560012,1.55609 -4.784311,4.65641 -7.165135,6.88961 l -4.328772,4.06039 -1.104006,1.46225 c -0.607204,0.80422 -1.104005,1.54592 -1.104005,1.64826 l 0,0.18601 11.571112,0 11.571111,0 0,5.36222 0,5.36223 -20.320001,0 -20.319999,0 0,-0.6604 z m -19.47334,-54.65516 0,-5.36222 5.78556,0 5.78556,0 0,5.36222 0,5.36223 -5.78556,0 -5.78556,0 0,-5.36223 z m -234.24445,-141.25222 0,-129.11667 260.2089,0 260.2089,0 0,129.11667 0,129.11667 -260.2089,0 -260.2089,0 0,-129.11667 z m 117.4775,94.55761 2.47193,-0.44026 2.74918,-0.87898 2.74917,-0.87899 2.25554,-1.13219 c 1.24055,-0.6227 3.20905,-1.76762 4.37445,-2.54427 l 2.1189,-1.41208 2.96907,-2.99542 2.96906,-2.99542 1.78502,-2.6692 1.78501,-2.66921 1.34768,-2.69301 c 2.4702,-4.93612 4.33517,-10.51551 5.63557,-16.85978 l 0.76625,-3.73837 0.9061,3.30812 0.90609,3.30812 1.13215,2.81135 c 2.69831,6.70049 6.64912,12.50688 12.03936,17.69393 l 2.53877,2.44307 2.33055,1.728 c 7.37159,5.4657 15.61695,8.885 25.23308,10.464 l 3.35932,0.55161 4.11957,0.17702 4.11958,0.17702 3.32818,-0.31865 c 1.8305,-0.17526 4.67258,-0.57809 6.31573,-0.89519 l 2.98755,-0.57654 2.9976,-0.98074 2.99761,-0.98074 3.18141,-1.52847 3.18142,-1.52847 2.46303,-1.60542 c 3.36795,-2.19526 5.91982,-4.33295 9.12983,-7.64804 l 2.71568,-2.80459 2.2232,-3.00367 2.2232,-3.00367 1.94799,-3.41028 1.94798,-3.41028 1.48703,-3.46409 c 1.98537,-4.62501 3.22379,-8.25214 4.46371,-13.0735 l 1.02918,-4.00189 0.70039,-4.13443 c 0.38521,-2.27393 0.70039,-4.50533 0.70039,-4.95866 l 0,-0.82424 -15.80444,0 -15.80445,0 0,1.65636 0,1.65637 -0.43425,2.50641 -0.43425,2.50642 -0.93016,2.72569 -0.93015,2.7257 -1.24615,2.21319 -1.24615,2.21319 -2.54,2.55099 -2.54,2.55099 -2.11667,1.03595 -2.11666,1.03596 -1.83445,0.49171 -1.83444,0.49171 -3.10445,-0.0138 -3.10444,-0.0138 -1.89935,-0.46118 -1.89935,-0.46119 -1.80826,-0.81991 c -0.99455,-0.45094 -2.55284,-1.3271 -3.46287,-1.947 l -1.65462,-1.12707 -1.56711,-1.65671 c -1.94785,-2.05919 -2.98129,-3.56508 -4.42951,-6.45447 l -1.13164,-2.25778 -0.85241,-2.68111 c -1.47924,-4.65272 -2.31363,-9.96049 -2.31812,-14.74611 l -0.002,-2.46945 39.25498,0 39.25497,0 -0.13077,-11.78278 -0.13078,-11.78278 -0.4654,-3.24555 c -0.90968,-6.34374 -1.6585,-10.35852 -2.74142,-14.69804 -3.66101,-14.67044 -9.46854,-26.18497 -17.8383,-35.36784 l -2.2045,-2.41866 -2.69067,-2.24586 c -3.48183,-2.90623 -6.80352,-5.104 -10.53508,-6.97045 l -2.99692,-1.49899 -3.40923,-1.13986 -3.40923,-1.13987 -2.64382,-0.5572 c -1.45411,-0.30646 -4.03128,-0.70414 -5.72706,-0.88372 l -3.08324,-0.32651 -4.9601,0.15902 -4.96009,0.15901 -3.12304,0.57968 c -3.92733,0.72898 -7.37457,1.71995 -10.98808,3.15874 l -2.82222,1.12372 -2.96333,1.69366 -2.96334,1.69365 -2.54,1.88514 -2.54,1.88514 -3.11449,3.11295 -3.11449,3.11295 -2.26407,3.02682 c -5.33645,7.13426 -9.44762,15.73651 -12.23591,25.60251 l -1.12545,3.98226 -0.85677,4.36553 c -1.05868,5.39432 -1.85642,11.56753 -2.26078,17.4947 l -0.30825,4.51849 0.30347,5.07707 c 0.16691,2.79239 0.61515,8.18857 0.9961,11.99152 0.38095,3.80294 0.69368,7.20019 0.69497,7.54944 l 0.002,0.635 -12.55889,0 -12.55889,0 0,9.72278 0,9.72277 -0.30659,1.4296 -0.3066,1.42959 -0.89284,1.32981 -0.89286,1.3298 -1.12342,0.62735 -1.12344,0.62735 -1.07196,0.18111 -1.07197,0.1811 -1.39773,-0.3353 -1.39772,-0.33531 -1.12801,-0.81713 -1.128,-0.81712 -0.78221,-1.48431 -0.7822,-1.48431 -0.0741,-42.68611 -0.0741,-42.68612 20.32358,0 20.32358,0 0,-16.22777 0,-16.22778 -20.32,0 -20.32001,0 0,-25.25889 0,-25.25889 -14.34892,0 -14.34893,0 -0.17504,5.00944 c -0.21432,6.1337 -0.57806,9.58497 -1.49466,14.18167 l -0.70345,3.52778 -1.09377,3.27978 -1.09376,3.27978 -1.04026,2.08244 c -0.57214,1.14534 -1.74833,3.15318 -2.61375,4.46185 l -1.57349,2.37942 -2.27643,2.29096 -2.27643,2.29095 -2.43017,1.60897 c -3.66724,2.428 -7.34966,3.95544 -12.10427,5.02076 l -2.39889,0.5375 -4.16278,0.3435 -4.16278,0.3435 0,16.16752 0,16.16751 14.95778,0 14.95778,0 0,41.70574 0,41.70574 0.28947,2.39148 c 0.1592,1.31532 0.55381,3.72499 0.87692,5.35482 l 0.58745,2.96334 0.96638,2.96333 0.96637,2.96333 1.6672,3.45463 1.66721,3.45463 1.77285,2.61315 1.77286,2.61315 2.97164,2.98484 2.97165,2.98485 2.11667,1.40598 c 3.09285,2.05441 4.36293,2.73575 7.21226,3.86903 l 2.55559,1.01644 2.43232,0.57768 c 1.33778,0.31772 3.36276,0.69479 4.49996,0.83793 l 2.06765,0.26027 4.09222,-0.10958 4.09222,-0.10957 2.47194,-0.44026 z m 69.72132,-103.9415 0.1722,-3.88056 0.44232,-2.54 c 0.60949,-3.49997 1.42849,-6.59739 2.43356,-9.20363 l 0.84956,-2.20297 1.35158,-2.05781 1.35157,-2.05781 1.54853,-1.45298 1.54853,-1.45299 1.46267,-0.74119 1.46267,-0.74118 1.75955,-0.4522 1.75956,-0.4522 2.68111,0.15019 2.68111,0.15018 1.69334,0.63531 c 2.21543,0.8312 3.64571,1.72832 5.31025,3.33081 l 1.35914,1.30847 1.23101,1.97556 1.23101,1.97555 0.8555,2.16545 c 1.07271,2.71523 1.90394,5.94821 2.43861,9.4847 l 0.41474,2.74319 0.185,3.59833 0.18501,3.59833 -18.29017,0 -18.29017,0 0.17221,-3.88055 z m 152.817052,103.93578 2.336969,-0.4558 2.862637,-0.99642 c 3.679529,-1.28076 5.930195,-2.42464 9.60295,-4.88054 l 2.9665227,-1.98368 2.8715829,-2.73041 2.8716113,-2.73042 1.84353202,-2.28731 c 1.01396804,-1.25802 2.60722538,-3.43031 3.54059078,-4.82731 l 1.6970305,-2.54 1.9304565,-3.95111 1.9304565,-3.95111 1.1667067,-3.45993 1.1667351,-3.45992 0.669713,-3.1723 c 0.368328,-1.74476 0.821182,-4.5693 1.00632,-6.27674 l 0.336635,-3.10445 -0.175486,-4.65666 -0.175486,-4.65667 -0.436569,-2.82222 c -0.570541,-3.6884 -1.083198,-5.89931 -2.1268836,-9.17223 l -0.854964,-2.68111 -1.9595537,-3.95111 -1.9595536,-3.95111 -1.8064198,-2.39889 -1.8063916,-2.39889 -2.9236248,-2.83343 -2.9235965,-2.83343 -2.6660688,-1.77744 c -4.7363946,-3.15771 -9.6100906,-5.31604 -15.3402456,-6.7935 l -3.177061,-0.81917 -4.648313,-0.74477 c -9.400117,-1.50611 -13.101207,-2.35229 -16.600932,-3.79546 -4.854364,-2.00177 -7.732184,-4.78613 -9.079005,-8.78418 l -0.591509,-1.75581 -0.0054,-2.63418 -0.0054,-2.63418 0.46942,-1.61469 c 0.258177,-0.88808 0.855106,-2.37877 1.32653,-3.31265 l 0.857109,-1.69795 1.673069,-1.74231 1.673042,-1.74232 1.89072,-0.93364 1.890719,-0.93365 2.433659,-0.11865 2.433659,-0.11865 2.364119,0.47312 2.364119,0.47312 2.260487,1.08713 2.260459,1.08713 1.889393,1.73127 1.889365,1.73128 1.279314,1.92437 1.279313,1.92437 0.880816,2.06986 0.880815,2.06987 0.683938,2.69538 0.683937,2.69538 0.325995,3.45723 0.325995,3.45722 14.4817539,0 14.481754,0 0,-8.60778 0,-8.60778 5.6444451,0 5.644444,0 0,41.35668 0,41.35668 0.299607,2.74055 c 0.749978,6.85968 2.583011,13.20873 5.484002,18.99464 l 1.313349,2.6194 1.737727,2.53717 1.737755,2.53717 2.237204,2.36345 2.237204,2.36345 2.42491,1.82545 2.42491,1.82545 2.681111,1.37663 2.681111,1.37661 2.54,0.83967 2.54,0.83966 2.681111,0.51486 2.681112,0.51485 4.938889,-10e-6 4.938889,0 2.578297,-0.47337 c 5.216116,-0.95765 9.629169,-2.68677 13.806312,-5.40955 l 2.420705,-1.57791 2.611261,-2.52616 2.611261,-2.52616 1.618403,-2.24776 c 0.890129,-1.23627 2.24457,-3.3005 3.009844,-4.58719 l 1.391469,-2.33943 1.390255,-3.39353 c 2.569859,-6.27284 4.082231,-12.06148 5.089539,-19.48018 0.671176,-4.94315 1.146546,-11.04831 1.148156,-14.74611 l 0,-2.61056 -15.509373,0 -15.509382,0 -0.0834,10.51278 -0.0834,10.51278 -0.80693,1.64332 -0.806902,1.64333 -1.118728,0.81039 -1.118701,0.81039 -1.549795,0.32174 -1.549767,0.32173 -1.368044,-0.32819 -1.368016,-0.32818 -1.113762,-0.95332 -1.113734,-0.95333 -0.675019,-1.49394 -0.675047,-1.49394 -0.07414,-42.54501 -0.07414,-42.545 20.323585,0 20.323585,0 0,-16.22777 0,-16.22778 -20.32,0 -20.320001,0 0,-25.25889 0,-25.25889 -14.34894,0 -14.348941,0 -0.183359,5.715 -0.183388,5.715 -0.403324,2.97167 c -0.538847,3.97048 -1.716504,9.13678 -2.759315,12.10503 l -0.85059,2.42108 -1.570792,3.07957 -1.570821,3.07957 -1.649561,2.18913 -1.64956,2.18913 -2.010636,1.86154 -2.010636,1.86155 -1.919591,1.27613 c -1.055765,0.70187 -2.9757231,1.77107 -4.2666076,2.37599 l -2.3470448,1.09987 -2.3973367,0.69264 c -1.31854227,0.38096 -3.6038368,0.91113 -5.078448,1.17816 l -2.6811112,0.4855 -6.5616667,0.14614 -6.561667,0.14613 0,2.22225 c 0,1.22224 -0.05633,2.22225 -0.125194,2.22225 -0.06886,0 -1.497612,-0.89533 -3.175,-1.98962 l -3.049806,-1.98963 -3.386667,-1.67005 -3.386667,-1.67004 -3.010239,-0.98395 -3.010238,-0.98395 -3.198651,-0.6388 -3.19865,-0.63881 -6.067778,-0.009 -6.067778,-0.009 -2.822222,0.52646 -2.822223,0.52645 -3.251397,1.06099 -3.251398,1.06099 -2.647555,1.32968 c -3.938129,1.97784 -6.549926,3.76343 -10.259851,7.01428 l -1.912422,1.67578 -2.161196,2.57491 c -1.188655,1.4162 -2.965357,3.80179 -3.948227,5.30131 l -1.787037,2.72641 -1.528487,3.20026 -1.52849,3.20026 -0.98438,2.85519 -0.98438,2.85519 -0.72467,3.23108 -0.724674,3.23107 -0.426807,3.64867 -0.426808,3.64867 0.0029,2.96506 c 0.0017,1.63079 0.13466,4.48907 0.295684,6.35173 l 0.292775,3.38667 0.566951,2.82222 0.566947,2.82223 0.983759,2.95189 0.983759,2.9519 1.284803,2.43677 1.284802,2.43677 1.364796,1.82242 1.364793,1.82241 2.288461,2.18639 2.288461,2.18638 2.317217,1.50465 c 6.15617,3.99744 12.02611,6.03535 25.611188,8.89163 11.83561,2.48845 15.019077,3.41421 19.316249,5.61722 l 2.534694,1.29943 1.86738,1.84273 1.86738,1.84274 0.856488,1.83445 c 0.471057,1.00894 1.027232,2.53294 1.235936,3.38666 l 0.379476,1.55222 -0.02568,3.24556 -0.02568,3.24556 -0.461772,1.92244 -0.461772,1.92244 -0.731915,1.54715 -0.731915,1.54716 -1.514038,1.63532 -1.514009,1.63532 -1.634631,0.86854 -1.634632,0.86855 -1.834444,0.49174 -1.834445,0.49174 -3.245555,0.0258 -3.245556,0.0258 -1.552222,-0.38156 -1.552222,-0.38156 -2.286904,-1.08803 -2.286903,-1.08803 -2.159762,-2.01697 -2.159762,-2.01697 -1.527387,-2.2989 -1.527415,-2.2989 -1.029292,-2.25778 -1.029321,-2.25778 -0.941945,-3.10444 -0.941973,-3.10445 -0.436429,-2.96333 c -0.24003,-1.62984 -0.515535,-3.69359 -0.612196,-4.58611 l -0.175768,-1.62278 -14.796376,0 -14.796347,0 0,28.78667 0,28.78666 14.816667,0 14.816668,0 0,-3.25513 0,-3.25513 2.046111,1.15089 c 3.822643,2.15015 7.117503,3.74355 10.80468,5.22517 l 3.678598,1.47815 3.094736,0.86707 c 3.425472,0.95973 6.807623,1.62871 10.183199,2.01424 l 2.224899,0.2541 3.951111,-0.10305 3.951111,-0.10306 2.33697,-0.4558 z"
         id="path4329"
         inkscape:connector-curvature="0" />
    </g>
    <g
       id="g4412"
       transform="matrix(1.0595489,0,0,1.0595489,-12.469047,-104.13726)">
      <path
         style="fill:#b2b2b2;fill-opacity:1"
         d="m 7.4430075,112.19914 0,-15.522222 144.6388825,0 144.63889,0 0,15.522222 0,15.52222 -144.63889,0 -144.6388825,0 0,-15.52222 z"
         id="path4398"
         inkscape:connector-curvature="0" />
      <path
         style="fill-opacity:1"
         d="m 15.016825,116.59278 0,-2.11667 0.259798,0 0.259798,0 0.176884,0.77611 c 0.211648,0.92865 0.616744,1.48396 1.553538,2.12962 l 0.697796,0.48094 1.348315,0 1.348315,0 0.564444,-0.56445 0.564445,-0.56444 0,-0.93858 0,-0.93858 -0.635,-0.5634 c -0.34925,-0.30986 -1.524,-1.08196 -2.610556,-1.71576 l -1.975555,-1.15238 -0.705556,-0.75505 -0.705555,-0.75506 0,-1.41152 0,-1.41153 0.904741,-0.80838 0.904742,-0.80839 1.044524,-0.19596 1.044525,-0.19595 1.4374,0.46204 1.437401,0.46204 0.352778,-0.47627 0.352777,-0.47626 -0.01239,2.38227 -0.01239,2.38228 -0.399125,-1.12889 -0.399126,-1.12889 -0.862939,-0.77611 -0.86294,-0.77611 -1.137264,0 -1.137265,0 -0.692727,0.69272 -0.692727,0.69273 0,0.41451 0,0.41451 0.677821,0.80554 0.677821,0.80555 1.932734,1.0658 c 2.319078,1.27885 2.662554,1.53374 3.286242,2.43865 l 0.480937,0.6978 0,1.16914 0,1.16915 -0.61183,0.77781 -0.611829,0.77782 -0.931328,0.38913 -0.931328,0.38914 -0.926287,-0.003 c -0.509458,-0.002 -1.5352,-0.18781 -2.279427,-0.41363 l -1.353139,-0.41056 -0.158722,0.41362 c -0.0873,0.22749 -0.272134,0.41362 -0.410749,0.41362 l -0.252027,0 0,-2.11667 z m 74.929997,1.73648 c -0.465666,-0.21415 -1.100666,-0.67364 -1.411111,-1.02109 l -0.564444,-0.63172 -0.09309,-3.99118 -0.09309,-3.99117 -0.280187,-0.33761 c -0.154102,-0.18568 -0.556711,-0.39143 -0.89469,-0.45722 l -0.614505,-0.11962 2.54,0 2.54,0 -0.614505,0.11962 c -0.337978,0.0658 -0.763275,0.29888 -0.945105,0.51797 l -0.330601,0.39835 0.09844,3.79566 0.09844,3.79566 0.684194,0.72793 0.684197,0.72794 1.43247,-0.006 1.432472,-0.006 0.601969,-0.48761 c 0.331083,-0.26819 0.743833,-0.76502 0.917222,-1.10406 l 0.315254,-0.61645 -0.0043,-3.47577 -0.0043,-3.47578 -0.207343,-0.32433 -0.207346,-0.32432 -0.705555,-0.13113 -0.705556,-0.13113 2.116667,-0.0103 2.116667,-0.0103 -0.695263,0.19383 -0.69526,0.19383 -0.193831,0.69526 -0.193827,0.69526 -0.03229,3.24556 -0.03229,3.24555 -0.348618,0.67835 c -0.191739,0.37309 -0.692601,0.93371 -1.113025,1.24581 l -0.764407,0.56746 -1.49337,0.0993 -1.493371,0.0993 -0.846667,-0.38937 z m 36.136968,-0.0511 -1.11636,-0.42606 -0.68476,-0.62968 -0.68476,-0.62969 -0.52102,-1.12889 -0.52101,-1.12889 -0.006,-1.01622 -0.006,-1.01621 0.3212,-0.95934 c 0.17666,-0.52764 0.63816,-1.38591 1.02557,-1.90728 l 0.70437,-0.94794 1.16165,-0.52753 1.16165,-0.52752 1.09615,-0.006 1.09614,-0.006 1.11326,0.33354 1.11326,0.33354 0.22077,-0.35721 0.22076,-0.3572 0.18039,0.47008 c 0.0992,0.25854 0.17477,1.06294 0.16791,1.78755 l -0.0125,1.31747 -0.55609,-1.05321 -0.55608,-1.05322 -0.82854,-0.42845 -0.82854,-0.42845 -1.07234,0.001 -1.07235,0.001 -0.86926,0.53007 -0.86925,0.53007 -0.53213,1.09165 -0.53212,1.09165 0.014,1.69334 0.014,1.69333 0.62268,1.21052 0.62267,1.21051 0.90584,0.55232 0.90584,0.55232 0.89885,0.001 c 0.49437,5.9e-4 1.22998,-0.12484 1.63469,-0.27871 l 0.73585,-0.27977 -0.0825,-2.18231 -0.0825,-2.18228 -0.70555,-0.35598 -0.70556,-0.35599 2.25778,0.0137 2.25778,0.0137 -0.59494,0.24042 -0.59494,0.24042 -0.18117,0.90586 c -0.0996,0.49822 -0.18117,1.5681 -0.18117,2.3775 l 0,1.47165 -0.77611,0.3602 -0.77612,0.3602 -1.69333,0.10584 -1.69333,0.10585 -1.11636,-0.42606 z m 26.4234,-0.16462 c -0.13743,-0.37078 -1.12523,-3.13931 -2.19512,-6.15229 l -1.94526,-5.47815 -0.84666,-0.51802 -0.84667,-0.51802 2.54,0.0181 2.54,0.018 -0.635,0.30625 -0.635,0.30625 0,0.5001 c 0,0.58456 2.49813,7.91297 2.81227,8.24997 l 0.21305,0.22855 1.03547,-2.8829 1.03548,-2.8829 -0.46162,-1.3898 -0.46161,-1.38979 -0.88708,-0.54091 -0.88707,-0.54091 2.68111,0.003 2.68111,0.003 -0.70305,0.35571 -0.70306,0.3557 -0.083,0.43117 -0.083,0.43116 1.38611,3.93619 1.38611,3.9362 0.2385,-0.0497 0.2385,-0.0497 1.34871,-4.03512 c 0.74178,-2.21932 1.3487,-4.12965 1.3487,-4.24518 0,-0.11553 -0.34925,-0.39953 -0.77612,-0.63111 l -0.77611,-0.42105 1.97556,-0.01 1.97555,-0.01 -0.78269,0.6336 -0.7827,0.6336 -1.9856,5.78556 c -1.09207,3.18205 -2.09049,5.89158 -2.21869,6.02117 l -0.23311,0.23562 -0.45498,-1.2234 c -0.25023,-0.67286 -0.88572,-2.42989 -1.4122,-3.9045 l -0.95722,-2.68112 -0.24307,0.10984 c -0.13369,0.0604 -0.81457,1.73368 -1.51307,3.71837 -0.6985,1.9847 -1.3617,3.69913 -1.47377,3.80986 l -0.20377,0.20133 -0.24986,-0.67414 z m 70.84381,-3.61619 c -1.91047,-2.34004 -3.52972,-4.25462 -3.59833,-4.25462 -0.0686,0 -0.12475,1.70392 -0.12475,3.78648 l 0,3.78648 0.77611,0.28346 0.77612,0.28346 -1.97556,-0.006 -1.97556,-0.006 0.70556,-0.19596 0.70556,-0.19596 0.0779,-4.47276 0.0779,-4.47276 -0.46018,-0.50849 -0.46018,-0.50849 -0.60552,-0.11844 -0.60553,-0.11845 1.56442,-0.0384 1.56441,-0.0384 3.23336,4.00441 3.23337,4.00442 0.0795,-3.47084 0.0795,-3.47085 -0.31165,-0.37552 c -0.17141,-0.20653 -0.58818,-0.42934 -0.92615,-0.49513 l -0.61451,-0.11962 2.11667,0 2.11667,0 -0.61451,0.11962 c -0.33798,0.0658 -0.74771,0.28012 -0.91051,0.47628 l -0.296,0.35666 -0.0773,5.0099 -0.0773,5.0099 -3.47359,-4.25462 z m 42.57188,2.3776 0.002,-1.97555 0.5492,1.21007 0.54921,1.21006 0.98775,0.41271 c 0.54317,0.22699 1.22861,0.41271 1.52311,0.41271 l 0.53545,0 0.74361,-0.58492 0.74362,-0.58493 0,-0.63227 0,-0.63227 -0.77611,-0.71621 c -0.42686,-0.39392 -1.51145,-1.12841 -2.41019,-1.6322 l -1.63408,-0.916 -0.43029,-0.65671 -0.43029,-0.6567 -0.0242,-0.85299 -0.0242,-0.853 0.48061,-0.73349 0.4806,-0.7335 0.70917,-0.26963 c 0.95717,-0.36391 1.99212,-0.33921 3.13725,0.0749 l 0.95267,0.3445 0.26249,-0.41505 0.26248,-0.41505 -0.0211,1.97556 -0.0211,1.97555 -0.25877,-0.89382 -0.25877,-0.89382 -0.86632,-0.72896 -0.86632,-0.72895 -0.82501,0 -0.82502,0 -0.56444,0.56444 -0.56444,0.56445 0,0.55345 0,0.55345 0.635,0.59449 c 0.34925,0.32698 1.3542,0.97873 2.23323,1.44835 0.87902,0.46961 1.8683,1.14132 2.1984,1.49269 l 0.60016,0.63885 0.14343,0.95769 0.14343,0.95769 -0.56444,0.90185 -0.56444,0.90185 -1.14314,0.34249 -1.14313,0.34249 -1.57415,-0.37763 -1.57416,-0.37763 -0.25522,0.40329 -0.25522,0.40329 0.002,-1.97555 z m -233.126056,1.18727 0.705556,-0.35664 0.07738,-4.7192 0.07738,-4.7192 -0.971519,0 c -0.534336,0 -1.186529,0.0825 -1.449318,0.18334 l -0.4778,0.18335 -0.380903,0.87499 -0.380903,0.87498 -0.01105,-1.34055 -0.01105,-1.34056 4.34425,0 4.344249,0 0.171306,0.44642 c 0.09422,0.24553 0.171306,0.83581 0.171306,1.31173 l 0,0.86532 -0.644364,-0.95896 -0.644367,-0.95895 -1.331189,-0.086 -1.331191,-0.086 0,4.47707 0,4.47708 0.352778,0.45347 c 0.194027,0.2494 0.606777,0.51295 0.917222,0.58565 l 0.564444,0.13218 -2.398889,0.0286 -2.398889,0.0286 0.705556,-0.35664 z m 12.841111,0.16074 c 0.310444,-0.0763 0.723194,-0.26763 0.917222,-0.42515 l 0.352778,-0.28641 0,-4.44645 0,-4.44644 -0.352778,-0.28641 c -0.194028,-0.15752 -0.606778,-0.34884 -0.917222,-0.42515 l -0.564445,-0.13874 2.54,0 2.54,0 -0.564444,0.13874 c -0.310445,0.0763 -0.723195,0.26763 -0.917222,0.42515 l -0.352778,0.28641 0,4.44644 0,4.44645 0.352778,0.28641 c 0.194027,0.15752 0.606777,0.34884 0.917222,0.42515 l 0.564444,0.13874 -2.54,0 -2.54,0 0.564445,-0.13874 z m 12.276666,-0.0483 0.705556,-0.19626 0,-4.91344 0,-4.91344 -0.705556,-0.19626 -0.705555,-0.19626 3.991471,-0.0281 3.991472,-0.0281 0.171306,0.44641 c 0.09422,0.24553 0.169898,0.78528 0.168176,1.19945 l -0.0031,0.75303 -0.722881,-0.91722 -0.722881,-0.91723 -1.813989,0 -1.813989,0 0,2.11667 0,2.11667 1.199444,-0.004 1.199445,-0.004 0.306341,-0.20735 c 0.168489,-0.11404 0.450376,-0.46134 0.626417,-0.77179 l 0.320077,-0.56444 -0.0093,1.97555 -0.0093,1.97556 -0.278392,-0.69759 c -0.153117,-0.38367 -0.430815,-0.79448 -0.61711,-0.9129 l -0.338706,-0.21531 -1.199445,-0.004 -1.199444,-0.004 0,2.37537 0,2.37537 0.776111,0.28346 0.776111,0.28346 -2.398889,-0.006 -2.398888,-0.006 0.705555,-0.19626 z m 16.51,0.0483 c 0.310444,-0.0763 0.723194,-0.26763 0.917222,-0.42515 l 0.352778,-0.28641 0,-4.62211 0,-4.62211 -1.226259,0 -1.226258,0 -0.430248,0.49388 c -0.236637,0.27164 -0.500295,0.68439 -0.585904,0.91723 l -0.15566,0.42333 -0.02227,-1.19944 -0.02229,-1.19945 4.3448,0 4.344802,0 0.107657,1.12889 0.107656,1.12889 -0.219123,0 -0.219126,0 0,-0.40733 0,-0.40733 -0.627241,-0.43934 -0.627239,-0.43933 -1.066095,0 -1.066091,0 0,4.62211 0,4.62211 0.352777,0.28641 c 0.194028,0.15752 0.606778,0.34884 0.917223,0.42515 l 0.564444,0.13874 -2.54,0 -2.54,0 0.564445,-0.13874 z m 30.197779,0 c 0.31045,-0.0763 0.7232,-0.26763 0.91722,-0.42515 l 0.35278,-0.28641 0,-4.30534 0,-4.30533 -0.40529,-0.33636 c -0.22291,-0.185 -0.76266,-0.44363 -1.19944,-0.57474 l -0.79416,-0.23838 1.60029,-0.0243 1.60029,-0.0243 2.47525,3.03389 c 1.3614,1.66863 2.83576,3.45532 3.27637,3.97041 l 0.80111,0.93652 -0.0789,-3.74641 -0.0789,-3.74641 -0.70556,-0.19587 -0.70555,-0.19587 1.97555,0 1.97556,0 -0.70556,0.19603 -0.70555,0.19602 -0.0769,5.13807 -0.0769,5.13806 -0.26252,0 c -0.14439,0 -1.74506,-1.80975 -3.55704,-4.02167 -1.81199,-2.21191 -3.40549,-4.064 -3.5411,-4.11574 l -0.24659,-0.0941 0,3.49736 0,3.49735 0.35276,0.45347 c 0.19403,0.24941 0.60678,0.51295 0.91723,0.58565 l 0.56444,0.13218 -2.11666,0 -2.11666,0 0.56444,-0.13874 z m 63.6736,-0.32729 0.67306,-0.5315 2.10624,-4.97183 c 1.15844,-2.73451 2.17817,-4.97183 2.26607,-4.97183 0.0879,0 1.03899,2.12725 2.11353,4.72722 l 1.9537,4.72722 0.76796,0.77611 0.76796,0.77612 -2.16551,-0.0179 -2.16551,-0.0179 0.635,-0.25524 0.635,-0.25524 0,-0.42672 c 0,-0.23469 -0.20429,-0.93729 -0.45398,-1.56132 l -0.45397,-1.13459 -2.09606,0 -2.09605,0 -0.55531,1.29549 -0.55532,1.2955 0.17089,0.2765 c 0.094,0.15208 0.44365,0.38656 0.77701,0.52106 l 0.60612,0.24456 -1.80195,0.0179 -1.80195,0.0179 0.67307,-0.5315 z m 5.53451,-5.87564 -0.88536,-2.17381 -0.91055,1.96214 c -0.50081,1.07918 -0.91918,2.0574 -0.92972,2.17382 l -0.0192,0.21166 1.81508,0 1.81507,0 -0.88536,-2.17381 z m 11.35603,6.15705 0.69526,-0.19383 0.19383,-0.69526 0.19383,-0.69526 0,-3.52778 0,-3.52777 -0.19383,-0.69527 -0.19383,-0.69526 -0.69526,-0.20678 -0.69526,-0.20679 3.48104,0.0554 3.48104,0.0554 0.82285,0.92168 0.82284,0.92167 0,0.57401 c 0,0.3157 -0.18451,0.93081 -0.41002,1.36691 l -0.41002,0.7929 -0.85998,0.35621 c -0.47299,0.19592 -0.85738,0.43606 -0.8542,0.53364 0.003,0.0976 0.67069,1.06643 1.48337,2.15298 l 1.4776,1.97556 0.98607,0.49345 0.98607,0.49345 -1.55222,-0.0119 -1.55222,-0.0119 -1.77583,-2.52764 -1.77582,-2.52765 -0.56438,0 -0.56438,0 0.0824,2.17986 0.0824,2.17985 0.70556,0.35599 0.70556,0.35598 -2.39889,-0.024 -2.39889,-0.024 0.69526,-0.19383 z m 5.04531,-5.84616 0.64505,-0.45182 0.25341,-0.66651 0.25341,-0.66652 -0.30091,-0.86318 -0.3009,-0.86318 -0.51621,-0.27627 -0.51621,-0.27626 -1.00633,0 -1.00633,0 0,2.25777 0,2.25778 0.92498,0 0.92499,0 0.64505,-0.45181 z m 11.97542,5.76605 0.78267,-0.28565 -0.0771,-4.83016 -0.0771,-4.83016 -0.70555,-0.196 -0.70556,-0.196 4.13313,-0.0281 4.13314,-0.0281 0.10766,1.12888 0.10765,1.12889 -0.15725,0 c -0.0865,0 -0.30106,-0.381 -0.47683,-0.84666 l -0.31958,-0.84667 -2.14118,0 -2.14118,0 0,2.11667 0,2.11666 1.48166,-0.004 1.48167,-0.004 0.33872,-0.21531 c 0.18629,-0.11842 0.46399,-0.52923 0.61711,-0.9129 l 0.27839,-0.69759 0,2.11667 0,2.11667 -0.27839,-0.69759 c -0.15312,-0.38368 -0.43082,-0.79448 -0.61711,-0.9129 l -0.33872,-0.21532 -1.48167,-0.004 -1.48166,-0.004 0,2.39889 0,2.39889 2.00804,0 2.00805,0 0.98648,-1.05833 0.98647,-1.05834 -0.20999,0.70556 c -0.11549,0.38805 -0.31688,0.9913 -0.44753,1.34055 l -0.23755,0.635 -4.16977,-0.0223 -4.16976,-0.0223 0.78266,-0.28564 z m 35.14532,0.12904 0.65021,-0.1243 0.26702,-0.70231 0.26701,-0.7023 0,-4.21496 0,-4.21496 -1.24954,0 -1.24955,0 -0.75365,0.91722 -0.75365,0.91722 0.1649,-0.70556 c 0.0907,-0.38805 0.16663,-0.9278 0.16875,-1.19944 l 0.004,-0.49389 4.37445,0 4.37444,0 -0.0179,1.19945 -0.0179,1.19944 -0.24842,-0.61655 -0.24841,-0.61655 -0.56181,-0.30067 -0.56181,-0.30067 -1.01315,0 -1.01316,0 0.0774,4.7192 0.0774,4.7192 0.70556,0.35664 0.70555,0.35663 -2.39888,-0.0343 -2.39889,-0.0343 0.6502,-0.12429 z m 13.39691,-0.12904 0.78266,-0.28565 -0.0771,-4.83016 -0.0771,-4.83016 -0.70555,-0.196 -0.70556,-0.196 4.16278,-0.0281 4.16278,-0.0281 0.004,0.49388 c 0.002,0.27164 0.0804,0.77964 0.17403,1.12889 l 0.17018,0.635 -0.31514,0 -0.31514,0 0,-0.508 0,-0.508 -0.33867,-0.33866 -0.33866,-0.33867 -2.06023,0 -2.06022,0 0,2.11667 0,2.11666 1.70696,0 1.70696,0 0.39866,-0.91722 0.39866,-0.91722 -0.007,2.11667 -0.007,2.11666 -0.2784,-0.69759 c -0.15311,-0.38367 -0.43081,-0.79448 -0.61711,-0.9129 l -0.3387,-0.21531 -1.48167,-0.004 -1.48166,-0.004 0,2.39889 0,2.39889 2.01278,0 2.01279,0 0.98882,-1.04846 0.98883,-1.04846 -0.21708,0.69568 c -0.11939,0.38263 -0.32397,0.98143 -0.45462,1.33068 l -0.23755,0.635 -4.16977,-0.0223 -4.16976,-0.0223 0.78267,-0.28564 z m 31.39066,0.13255 c 0.31045,-0.0727 0.7232,-0.33624 0.91723,-0.58565 l 0.35277,-0.45346 0,-4.46162 0,-4.46161 -1.22625,0 -1.22626,0 -0.46708,0.51611 c -0.25689,0.28386 -0.46707,0.66486 -0.46707,0.84666 l 0,0.33056 -0.31242,0 -0.31242,0 0.17131,-0.44642 c 0.0942,-0.24553 0.1713,-0.75353 0.1713,-1.12889 l 0,-0.68247 4.37445,0 4.37444,0 -0.0179,1.19945 -0.0179,1.19944 -0.24842,-0.61655 -0.24841,-0.61655 -0.56181,-0.30067 -0.5618,-0.30067 -1.01316,0 -1.01315,0 0.0774,4.7192 0.0774,4.7192 0.70555,0.35664 0.70556,0.35663 -2.39889,-0.0286 -2.39889,-0.0286 0.56444,-0.13218 z"
         id="path4392"
         inkscape:connector-curvature="0" />
    </g>
    <g
       id="g4442"
       transform="matrix(0.85071059,0,0,0.85071059,21.933879,4.8234303)">
      <g
         style="font-style:normal;font-variant:normal;font-weight:bold;font-stretch:normal;font-size:50.79999924px;line-height:125%;font-family:Ubuntu;-inkscape-font-specification:'Ubuntu, Bold';text-align:start;letter-spacing:0px;word-spacing:0px;writing-mode:lr-tb;text-anchor:start;fill:#000000;fill-opacity:1;stroke:none;stroke-width:1px;stroke-linecap:butt;stroke-linejoin:miter;stroke-opacity:1"
         id="text4416">
        <path
           d="m 72.539065,83.56636 q -3.4036,-6.045199 -7.366,-11.937999 -3.9624,-5.8928 -8.4328,-11.1252 l 0,23.063199 -7.8232,0 0,-35.204399 6.4516,0 q 1.6764,1.6764 3.7084,4.1148 2.032,2.4384 4.1148,5.2324 2.1336,2.7432 4.2164,5.7404 2.0828,2.9464 3.9116,5.6896 l 0,-20.7772 7.874,0 0,35.204399 -6.6548,0 z"
           style="font-style:normal;font-variant:normal;font-weight:bold;font-stretch:normal;font-size:50.79999924px;line-height:125%;font-family:Ubuntu;-inkscape-font-specification:'Ubuntu, Bold';text-align:start;writing-mode:lr-tb;text-anchor:start"
           id="path4473" />
        <path
           d="m 87.314721,48.361961 7.9248,0 0,35.204399 -7.9248,0 0,-35.204399 z"
           style="font-style:normal;font-variant:normal;font-weight:bold;font-stretch:normal;font-size:50.79999924px;line-height:125%;font-family:Ubuntu;-inkscape-font-specification:'Ubuntu, Bold';text-align:start;writing-mode:lr-tb;text-anchor:start"
           id="path4475" />
        <path
           d="m 119.44096,84.27756 q -8.5852,0 -13.1064,-4.775199 -4.4704,-4.7752 -4.4704,-13.5636 0,-4.3688 1.3716,-7.7724 1.3716,-3.4544 3.7592,-5.7912 2.3876,-2.3876 5.6896,-3.6068 3.302,-1.2192 7.1628,-1.2192 2.2352,0 4.064,0.3556 1.8288,0.3048 3.2004,0.762 1.3716,0.4064 2.286,0.8636 0.9144,0.4572 1.3208,0.7112 l -2.286,6.4008 q -1.6256,-0.8636 -3.81,-1.4732 -2.1336,-0.6096 -4.8768,-0.6096 -1.8288,0 -3.6068,0.6096 -1.7272,0.6096 -3.0988,1.9812 -1.3208,1.3208 -2.1336,3.4544 -0.8128,2.1336 -0.8128,5.1816 0,2.4384 0.508,4.572 0.5588,2.0828 1.7272,3.6068 1.2192,1.524 3.1496,2.4384 1.9304,0.8636 4.6736,0.8636 1.7272,0 3.0988,-0.2032 1.3716,-0.2032 2.4384,-0.4572 1.0668,-0.3048 1.8796,-0.6604 0.8128,-0.3556 1.4732,-0.6604 l 2.1844,6.35 q -1.6764,1.015999 -4.7244,1.828799 -3.048,0.8128 -7.0612,0.8128 z"
           style="font-style:normal;font-variant:normal;font-weight:bold;font-stretch:normal;font-size:50.79999924px;line-height:125%;font-family:Ubuntu;-inkscape-font-specification:'Ubuntu, Bold';text-align:start;writing-mode:lr-tb;text-anchor:start"
           id="path4477" />
        <path
           d="m 157.56318,48.361961 7.9248,0 0,35.204399 -7.9248,0 0,-14.935199 -13.3096,0 0,14.935199 -7.9248,0 0,-35.204399 7.9248,0 0,13.462 13.3096,0 0,-13.462 z"
           style="font-style:normal;font-variant:normal;font-weight:bold;font-stretch:normal;font-size:50.79999924px;line-height:125%;font-family:Ubuntu;-inkscape-font-specification:'Ubuntu, Bold';text-align:start;writing-mode:lr-tb;text-anchor:start"
           id="path4479" />
        <path
           d="m 195.44014,77.521161 q 1.6764,0 2.7432,-0.254 1.1176,-0.3048 1.778,-0.762 0.6604,-0.508 0.9144,-1.1684 0.254,-0.6604 0.254,-1.4732 0,-1.7272 -1.6256,-2.8448 -1.6256,-1.1684 -5.588,-2.4892 -1.7272,-0.6096 -3.4544,-1.3716 -1.7272,-0.8128 -3.0988,-1.9812 -1.3716,-1.2192 -2.2352,-2.8956 -0.8636,-1.7272 -0.8636,-4.1656 0,-2.4384 0.9144,-4.3688 0.9144,-1.9812 2.5908,-3.3528 1.6764,-1.3716 4.064,-2.0828 2.3876,-0.762 5.3848,-0.762 3.556,0 6.1468,0.762 2.5908,0.762 4.2672,1.6764 l -2.286,6.2484 q -1.4732,-0.762 -3.302,-1.3208 -1.778,-0.6096 -4.318,-0.6096 -2.8448,0 -4.1148,0.8128 -1.2192,0.762 -1.2192,2.3876 0,0.9652 0.4572,1.6256 0.4572,0.6604 1.27,1.2192 0.8636,0.508 1.9304,0.9652 1.1176,0.4064 2.4384,0.8636 2.7432,1.016 4.7752,2.032 2.032,0.9652 3.3528,2.286 1.3716,1.3208 2.032,3.0988 0.6604,1.778 0.6604,4.318 0,4.9276 -3.4544,7.6708 -3.4544,2.692399 -10.414,2.692399 -2.3368,0 -4.2164,-0.3048 -1.8796,-0.254 -3.3528,-0.6604 -1.4224,-0.4064 -2.4892,-0.8636 -1.016,-0.4572 -1.7272,-0.863599 l 2.2352,-6.2992 q 1.5748,0.8636 3.8608,1.5748 2.3368,0.6604 5.6896,0.6604 z"
           style="font-style:normal;font-variant:normal;font-weight:bold;font-stretch:normal;font-size:50.79999924px;line-height:125%;font-family:Ubuntu;-inkscape-font-specification:'Ubuntu, Bold';text-align:start;writing-mode:lr-tb;text-anchor:start"
           id="path4481" />
        <path
           d="m 222.06092,65.938761 q 0,2.5908 0.6096,4.6736 0.6604,2.0828 1.8288,3.6068 1.2192,1.4732 2.9464,2.286 1.7272,0.8128 3.9624,0.8128 2.1844,0 3.9116,-0.8128 1.778,-0.8128 2.9464,-2.286 1.2192,-1.524 1.8288,-3.6068 0.6604,-2.0828 0.6604,-4.6736 0,-2.5908 -0.6604,-4.6736 -0.6096,-2.1336 -1.8288,-3.6068 -1.1684,-1.524 -2.9464,-2.3368 -1.7272,-0.8128 -3.9116,-0.8128 -2.2352,0 -3.9624,0.8636 -1.7272,0.8128 -2.9464,2.3368 -1.1684,1.4732 -1.8288,3.6068 -0.6096,2.0828 -0.6096,4.6228 z m 26.8732,0 q 0,4.5212 -1.3716,7.9756 -1.3208,3.4036 -3.6576,5.7404 -2.3368,2.285999 -5.588,3.454399 -3.2004,1.1684 -6.9088,1.1684 -3.6068,0 -6.8072,-1.1684 -3.2004,-1.1684 -5.588,-3.454399 -2.3876,-2.3368 -3.7592,-5.7404 -1.3716,-3.4544 -1.3716,-7.9756 0,-4.5212 1.4224,-7.9248 1.4224,-3.4544 3.81,-5.7912 2.4384,-2.3368 5.588,-3.5052 3.2004,-1.1684 6.7056,-1.1684 3.6068,0 6.8072,1.1684 3.2004,1.1684 5.588,3.5052 2.3876,2.3368 3.7592,5.7912 1.3716,3.4036 1.3716,7.9248 z"
           style="font-style:normal;font-variant:normal;font-weight:bold;font-stretch:normal;font-size:50.79999924px;line-height:125%;font-family:Ubuntu;-inkscape-font-specification:'Ubuntu, Bold';text-align:start;writing-mode:lr-tb;text-anchor:start"
           id="path4483" />
      </g>
      <g
         style="font-style:normal;font-weight:normal;font-size:11.28888893px;line-height:125%;font-family:sans-serif;letter-spacing:0px;word-spacing:0px;fill:#000000;fill-opacity:1;stroke:none;stroke-width:1px;stroke-linecap:butt;stroke-linejoin:miter;stroke-opacity:1"
         id="text4420">
        <path
           d="m 58.936972,104.83641 q -5.5372,0 -8.0264,3.0988 -2.4384,3.048 -2.4384,8.382 0,2.5908 0.6096,4.7244 0.6096,2.0828 1.8288,3.6068 1.2192,1.524 3.048,2.3876 1.8288,0.8128 4.2672,0.8128 1.3208,0 2.2352,-0.0508 0.9652,-0.0508 1.6764,-0.2032 l 0,-12.2428 7.924799,0 0,17.4244 q -1.4224,0.5588 -4.572,1.1684 -3.1496,0.6604 -7.772399,0.6604 -3.9624,0 -7.2136,-1.2192 -3.2004,-1.2192 -5.4864,-3.556 -2.286,-2.3368 -3.556,-5.7404 -1.2192,-3.4036 -1.2192,-7.7724 0,-4.4196 1.3716,-7.8232 1.3716,-3.4036 3.7592,-5.7404 2.3876,-2.3876 5.588,-3.606801 3.2512,-1.219199 6.9088,-1.219199 2.4892,0 4.470399,0.355599 2.032,0.3048 3.4544,0.762 1.4732,0.4064 2.3876,0.8636 0.9652,0.457201 1.3716,0.711201 l -2.286,6.35 q -1.6256,-0.8636 -3.7592,-1.4732 -2.082799,-0.6604 -4.571999,-0.6604 z"
           style="font-style:normal;font-variant:normal;font-weight:bold;font-stretch:normal;font-size:50.79999924px;line-height:125%;font-family:Ubuntu;-inkscape-font-specification:'Ubuntu, Bold';text-align:start;writing-mode:lr-tb;text-anchor:start"
           id="path4454" />
        <path
           d="m 77.386102,133.94481 0,-35.204401 23.774398,0 0,6.654801 -15.849599,0 0,6.9088 14.0716,0 0,6.5024 -14.0716,0 0,8.4836 17.017999,0 0,6.6548 -24.942798,0 z"
           style="font-style:normal;font-variant:normal;font-weight:bold;font-stretch:normal;font-size:50.79999924px;line-height:125%;font-family:Ubuntu;-inkscape-font-specification:'Ubuntu, Bold';text-align:start;writing-mode:lr-tb;text-anchor:start"
           id="path4456" />
        <path
           d="m 108.14391,98.740409 7.9248,0 0,35.204401 -7.9248,0 0,-35.204401 z"
           style="font-style:normal;font-variant:normal;font-weight:bold;font-stretch:normal;font-size:50.79999924px;line-height:125%;font-family:Ubuntu;-inkscape-font-specification:'Ubuntu, Bold';text-align:start;writing-mode:lr-tb;text-anchor:start"
           id="path4458" />
        <path
           d="m 147.73775,127.13761 0,6.8072 -23.5204,0 0,-35.204401 7.9248,0 0,28.397201 15.5956,0 z"
           style="font-style:normal;font-variant:normal;font-weight:bold;font-stretch:normal;font-size:50.79999924px;line-height:125%;font-family:Ubuntu;-inkscape-font-specification:'Ubuntu, Bold';text-align:start;writing-mode:lr-tb;text-anchor:start"
           id="path4460" />
        <path
           d="m 169.61905,118.75561 q 0,6.5024 1.8796,12.0396 1.8796,5.5372 5.5372,10.2616 l -3.3528,2.286 q -3.9624,-4.826 -6.4008,-11.0744 -2.3876,-6.2992 -2.3876,-13.5128 0,-7.2136 2.3876,-13.462 2.4384,-6.299201 6.4008,-11.1252 l 3.3528,2.286 q -3.6576,4.7244 -5.5372,10.2616 -1.8796,5.5372 -1.8796,12.0396 z"
           style="font-style:normal;font-variant:normal;font-weight:normal;font-stretch:normal;font-size:50.79999924px;line-height:125%;font-family:Ubuntu;-inkscape-font-specification:'Ubuntu, Normal';text-align:start;writing-mode:lr-tb;text-anchor:start"
           id="path4462" />
        <path
           d="m 180.60297,119.82241 q 0,-5.1308 1.4224,-9.0424 1.4224,-3.9624 4.0132,-6.6548 2.6416,-2.6924 6.35,-4.064 3.7592,-1.422401 8.4328,-1.473201 l 0.3556,3.962401 q -2.9972,0.0508 -5.4864,0.6604 -2.4384,0.6096 -4.3688,1.9304 -1.9304,1.3208 -3.2512,3.4544 -1.3208,2.0828 -1.9812,5.1816 1.3208,-0.6096 2.9464,-1.016 1.6764,-0.4064 3.4544,-0.4064 2.9972,0 5.08,0.9144 2.0828,0.9144 3.4036,2.4384 1.3208,1.4732 1.8796,3.4544 0.6096,1.9304 0.6096,4.064 0,1.9304 -0.6604,3.9624 -0.6604,2.032 -2.032,3.7084 -1.3208,1.6764 -3.4036,2.7432 -2.0828,1.0668 -4.9276,1.0668 -5.7912,0 -8.8392,-3.9624 -2.9972,-3.9624 -2.9972,-10.922 z m 11.3792,-3.6068 q -1.778,0 -3.302,0.3556 -1.524,0.3048 -3.048,0.9652 -0.0508,0.5588 -0.1016,1.1684 0,0.5588 0,1.1176 0,2.2352 0.3048,4.2164 0.3048,1.9812 1.0668,3.5052 0.8128,1.4732 2.1336,2.3876 1.3208,0.8636 3.3528,0.8636 1.6764,0 2.8448,-0.7112 1.1684,-0.7112 1.9304,-1.8288 0.762,-1.1176 1.0668,-2.3876 0.3556,-1.3208 0.3556,-2.54 0,-3.4544 -1.6764,-5.2832 -1.6256,-1.8288 -4.9276,-1.8288 z"
           style="font-style:normal;font-variant:normal;font-weight:normal;font-stretch:normal;font-size:50.79999924px;line-height:125%;font-family:Ubuntu;-inkscape-font-specification:'Ubuntu, Normal';text-align:start;writing-mode:lr-tb;text-anchor:start"
           id="path4464" />
        <path
           d="m 215.11919,128.15361 q 0.0508,0.4064 0.0508,0.8128 0,0.3556 0,0.762 0,3.2004 -0.9652,6.2992 -0.9144,3.1496 -2.54,5.9944 l -3.6576,-1.1684 q 1.27,-2.5908 1.6764,-5.2832 0.4064,-2.6416 0.4064,-4.9784 0,-0.6604 -0.0508,-1.27 0,-0.6096 -0.0508,-1.1684 l 5.1308,0 z"
           style="font-style:normal;font-variant:normal;font-weight:normal;font-stretch:normal;font-size:50.79999924px;line-height:125%;font-family:Ubuntu;-inkscape-font-specification:'Ubuntu, Normal';text-align:start;writing-mode:lr-tb;text-anchor:start"
           id="path4466" />
        <path
           d="m 221.11835,116.31721 q 0,-8.8392 3.0988,-13.6144 3.1496,-4.7752 8.6868,-4.7752 5.5372,0 8.636,4.7752 3.1496,4.7752 3.1496,13.6144 0,8.8392 -3.1496,13.6144 -3.0988,4.7752 -8.636,4.7752 -5.5372,0 -8.6868,-4.7752 -3.0988,-4.7752 -3.0988,-13.6144 z m 18.5928,0 q 0,-2.8956 -0.3556,-5.4864 -0.3048,-2.5908 -1.1176,-4.5212 -0.762,-1.9304 -2.0828,-3.048 -1.3208,-1.1684 -3.2512,-1.1684 -1.9304,0 -3.2512,1.1684 -1.3208,1.1176 -2.1336,3.048 -0.762,1.9304 -1.1176,4.5212 -0.3048,2.5908 -0.3048,5.4864 0,2.8956 0.3048,5.4864 0.3556,2.5908 1.1176,4.5212 0.8128,1.9304 2.1336,3.0988 1.3208,1.1176 3.2512,1.1176 1.9304,0 3.2512,-1.1176 1.3208,-1.1684 2.0828,-3.0988 0.8128,-1.9304 1.1176,-4.5212 0.3556,-2.5908 0.3556,-5.4864 z"
           style="font-style:normal;font-variant:normal;font-weight:normal;font-stretch:normal;font-size:50.79999924px;line-height:125%;font-family:Ubuntu;-inkscape-font-specification:'Ubuntu, Normal';text-align:start;writing-mode:lr-tb;text-anchor:start"
           id="path4468" />
        <path
           d="m 255.02497,118.75561 q 0,-6.5024 -1.8796,-12.0396 -1.8796,-5.5372 -5.5372,-10.2616 l 3.3528,-2.286 q 3.9624,4.825999 6.35,11.1252 2.4384,6.2484 2.4384,13.462 0,7.2136 -2.4384,13.5128 -2.3876,6.2484 -6.35,11.0744 l -3.3528,-2.286 q 3.6576,-4.7244 5.5372,-10.2616 1.8796,-5.5372 1.8796,-12.0396 z"
           style="font-style:normal;font-variant:normal;font-weight:normal;font-stretch:normal;font-size:50.79999924px;line-height:125%;font-family:Ubuntu;-inkscape-font-specification:'Ubuntu, Normal';text-align:start;writing-mode:lr-tb;text-anchor:start"
           id="path4470" />
      </g>
    </g>
    <g
       style="font-style:normal;font-weight:normal;font-size:13.00888062px;line-height:125%;font-family:sans-serif;letter-spacing:0px;word-spacing:0px;fill:#000000;fill-opacity:1;stroke:none;stroke-width:1px;stroke-linecap:butt;stroke-linejoin:miter;stroke-opacity:1"
       id="text4424">
      <path
         d="m 101.69582,136.01503 0,1.09274 -2.835941,0 0,7.92241 -1.261861,0 0,-7.92241 -2.835936,0 0,-1.09274 6.933738,0 z"
         style="font-style:normal;font-variant:normal;font-weight:normal;font-stretch:normal;font-size:13.00888062px;line-height:125%;font-family:Ubuntu;-inkscape-font-specification:'Ubuntu, Normal';text-align:start;writing-mode:lr-tb;text-anchor:start"
         id="path4486" />
      <path
         d="m 101.87428,141.66088 q 0,-0.89761 0.26018,-1.56106 0.26018,-0.67647 0.68947,-1.11877 0.42929,-0.4423 0.98867,-0.66345 0.55939,-0.22115 1.14479,-0.22115 1.36593,0 2.09443,0.85858 0.72849,0.84558 0.72849,2.58877 0,0.0781 0,0.20814 0,0.11708 -0.013,0.22115 l -4.63116,0 q 0.0781,1.05372 0.61142,1.6001 0.53336,0.54637 1.66514,0.54637 0.63743,0 1.06672,-0.10407 0.44231,-0.11708 0.66346,-0.22115 l 0.16911,1.01469 q -0.22115,0.11708 -0.78053,0.24717 -0.54637,0.13009 -1.24885,0.13009 -0.88461,0 -1.53505,-0.26018 -0.63744,-0.27319 -1.05372,-0.74151 -0.41628,-0.46832 -0.62443,-1.10575 -0.19513,-0.65044 -0.19513,-1.41797 z m 4.64417,-0.66345 q 0.013,-0.81956 -0.41628,-1.33992 -0.41629,-0.53336 -1.15779,-0.53336 -0.41629,0 -0.74151,0.16912 -0.31221,0.1561 -0.53336,0.41628 -0.22115,0.26018 -0.35124,0.59841 -0.11708,0.33823 -0.15611,0.68947 l 3.35629,0 z"
         style="font-style:normal;font-variant:normal;font-weight:normal;font-stretch:normal;font-size:13.00888062px;line-height:125%;font-family:Ubuntu;-inkscape-font-specification:'Ubuntu, Normal';text-align:start;writing-mode:lr-tb;text-anchor:start"
         id="path4488" />
      <path
         d="m 111.09229,144.15859 q 0.74151,0 1.09275,-0.19514 0.36425,-0.19513 0.36425,-0.62442 0,-0.4423 -0.35124,-0.70248 -0.35124,-0.26018 -1.15779,-0.5854 -0.39027,-0.15611 -0.75452,-0.31221 -0.35124,-0.16912 -0.61142,-0.39027 -0.26017,-0.22115 -0.41628,-0.53337 -0.15611,-0.31221 -0.15611,-0.76752 0,-0.89761 0.66346,-1.41797 0.66345,-0.53336 1.80823,-0.53336 0.2862,0 0.57239,0.039 0.2862,0.026 0.53337,0.078 0.24716,0.039 0.42929,0.0911 0.19513,0.052 0.2992,0.0911 l -0.22115,1.04071 q -0.19513,-0.10407 -0.61142,-0.20814 -0.41628,-0.11708 -1.00168,-0.11708 -0.50735,0 -0.8846,0.20814 -0.37726,0.19514 -0.37726,0.62443 0,0.22115 0.078,0.39027 0.0911,0.16911 0.26018,0.31221 0.18212,0.13009 0.4423,0.24717 0.26018,0.11708 0.62443,0.24717 0.48133,0.18212 0.85858,0.36425 0.37726,0.16911 0.63744,0.40327 0.27319,0.23416 0.41628,0.57239 0.1431,0.32522 0.1431,0.80655 0,0.93664 -0.70248,1.41797 -0.68947,0.48133 -1.97735,0.48133 -0.89761,0 -1.40496,-0.15611 -0.50734,-0.1431 -0.68947,-0.22115 l 0.22115,-1.04071 q 0.20814,0.0781 0.66346,0.23416 0.45531,0.15611 1.20982,0.15611 z"
         style="font-style:normal;font-variant:normal;font-weight:normal;font-stretch:normal;font-size:13.00888062px;line-height:125%;font-family:Ubuntu;-inkscape-font-specification:'Ubuntu, Normal';text-align:start;writing-mode:lr-tb;text-anchor:start"
         id="path4490" />
      <path
         d="m 116.44301,138.26556 2.56275,0 0,1.0147 -2.56275,0 0,3.12213 q 0,0.50734 0.0781,0.84558 0.078,0.32522 0.23416,0.52035 0.15611,0.18212 0.39027,0.26018 0.23416,0.078 0.54637,0.078 0.54637,0 0.8716,-0.11708 0.33823,-0.13009 0.46832,-0.18212 l 0.23416,1.00168 q -0.18213,0.0911 -0.63744,0.22115 -0.45531,0.1431 -1.04071,0.1431 -0.68947,0 -1.14478,-0.16912 -0.4423,-0.18212 -0.71549,-0.53336 -0.27319,-0.35124 -0.39027,-0.85859 -0.10407,-0.52035 -0.10407,-1.19681 l 0,-6.03612 1.20983,-0.20815 0,2.09443 z"
         style="font-style:normal;font-variant:normal;font-weight:normal;font-stretch:normal;font-size:13.00888062px;line-height:125%;font-family:Ubuntu;-inkscape-font-specification:'Ubuntu, Normal';text-align:start;writing-mode:lr-tb;text-anchor:start"
         id="path4492" />
      <path
         d="m 125.93095,144.83505 q -0.41628,0.10407 -1.10575,0.22115 -0.67646,0.11708 -1.57408,0.11708 -0.78053,0 -1.31389,-0.22115 -0.53337,-0.23416 -0.85859,-0.65045 -0.32522,-0.41628 -0.46832,-0.97566 -0.1431,-0.57239 -0.1431,-1.26186 l 0,-3.7986 1.20983,0 0,3.53842 q 0,1.23584 0.39027,1.76921 0.39026,0.53336 1.31389,0.53336 0.19514,0 0.40328,-0.013 0.20814,-0.013 0.39026,-0.026 0.18213,-0.026 0.32523,-0.039 0.1561,-0.026 0.22115,-0.052 l 0,-5.7109 1.20982,0 0,6.56949 z"
         style="font-style:normal;font-variant:normal;font-weight:normal;font-stretch:normal;font-size:13.00888062px;line-height:125%;font-family:Ubuntu;-inkscape-font-specification:'Ubuntu, Normal';text-align:start;writing-mode:lr-tb;text-anchor:start"
         id="path4494" />
      <path
         d="m 130.51293,138.12247 q 0.1561,0 0.35124,0.026 0.20814,0.013 0.40327,0.052 0.19513,0.026 0.35124,0.065 0.16912,0.026 0.24717,0.052 l -0.20814,1.05372 q -0.1431,-0.052 -0.48133,-0.11708 -0.32522,-0.0781 -0.84558,-0.0781 -0.33823,0 -0.67646,0.0781 -0.32522,0.065 -0.42929,0.0911 l 0,5.68488 -1.20983,0 0,-6.47842 q 0.42929,-0.15611 1.06673,-0.2862 0.63743,-0.14309 1.43098,-0.14309 z"
         style="font-style:normal;font-variant:normal;font-weight:normal;font-stretch:normal;font-size:13.00888062px;line-height:125%;font-family:Ubuntu;-inkscape-font-specification:'Ubuntu, Normal';text-align:start;writing-mode:lr-tb;text-anchor:start"
         id="path4496" />
      <path
         d="m 134.17777,138.26556 2.56275,0 0,1.0147 -2.56275,0 0,3.12213 q 0,0.50734 0.078,0.84558 0.0781,0.32522 0.23416,0.52035 0.15611,0.18212 0.39027,0.26018 0.23416,0.078 0.54637,0.078 0.54638,0 0.8716,-0.11708 0.33823,-0.13009 0.46832,-0.18212 l 0.23416,1.00168 q -0.18213,0.0911 -0.63744,0.22115 -0.45531,0.1431 -1.04071,0.1431 -0.68947,0 -1.14478,-0.16912 -0.4423,-0.18212 -0.71549,-0.53336 -0.27318,-0.35124 -0.39026,-0.85859 -0.10408,-0.52035 -0.10408,-1.19681 l 0,-6.03612 1.20983,-0.20815 0,2.09443 z"
         style="font-style:normal;font-variant:normal;font-weight:normal;font-stretch:normal;font-size:13.00888062px;line-height:125%;font-family:Ubuntu;-inkscape-font-specification:'Ubuntu, Normal';text-align:start;writing-mode:lr-tb;text-anchor:start"
         id="path4498" />
      <path
         d="m 137.77574,141.66088 q 0,-0.89761 0.26018,-1.56106 0.26018,-0.67647 0.68947,-1.11877 0.42929,-0.4423 0.98868,-0.66345 0.55938,-0.22115 1.14478,-0.22115 1.36593,0 2.09443,0.85858 0.72849,0.84558 0.72849,2.58877 0,0.0781 0,0.20814 0,0.11708 -0.013,0.22115 l -4.63117,0 q 0.0781,1.05372 0.61142,1.6001 0.53337,0.54637 1.66514,0.54637 0.63743,0 1.06673,-0.10407 0.4423,-0.11708 0.66345,-0.22115 l 0.16911,1.01469 q -0.22115,0.11708 -0.78053,0.24717 -0.54637,0.13009 -1.24885,0.13009 -0.8846,0 -1.53505,-0.26018 -0.63743,-0.27319 -1.05372,-0.74151 -0.41628,-0.46832 -0.62442,-1.10575 -0.19514,-0.65044 -0.19514,-1.41797 z m 4.64417,-0.66345 q 0.013,-0.81956 -0.41628,-1.33992 -0.41629,-0.53336 -1.15779,-0.53336 -0.41629,0 -0.74151,0.16912 -0.31221,0.1561 -0.53336,0.41628 -0.22115,0.26018 -0.35124,0.59841 -0.11708,0.33823 -0.15611,0.68947 l 3.35629,0 z"
         style="font-style:normal;font-variant:normal;font-weight:normal;font-stretch:normal;font-size:13.00888062px;line-height:125%;font-family:Ubuntu;-inkscape-font-specification:'Ubuntu, Normal';text-align:start;writing-mode:lr-tb;text-anchor:start"
         id="path4500" />
      <path
         d="m 146.6295,145.03018 -1.20982,0 0,-6.76462 1.20982,0 0,6.76462 z m -0.61141,-7.98745 q -0.32523,0 -0.55939,-0.20814 -0.22115,-0.22115 -0.22115,-0.5854 0,-0.36425 0.22115,-0.57239 0.23416,-0.22115 0.55939,-0.22115 0.32522,0 0.54637,0.22115 0.23416,0.20814 0.23416,0.57239 0,0.36425 -0.23416,0.5854 -0.22115,0.20814 -0.54637,0.20814 z"
         style="font-style:normal;font-variant:normal;font-weight:normal;font-stretch:normal;font-size:13.00888062px;line-height:125%;font-family:Ubuntu;-inkscape-font-specification:'Ubuntu, Normal';text-align:start;writing-mode:lr-tb;text-anchor:start"
         id="path4502" />
      <path
         d="m 150.7521,145.16027 q -1.11876,-0.026 -1.58708,-0.48133 -0.46832,-0.45531 -0.46832,-1.41797 l 0,-8.11754 1.20982,-0.20814 0,8.13055 q 0,0.29921 0.052,0.49434 0.052,0.19513 0.16911,0.31221 0.11708,0.11708 0.31222,0.18213 0.19513,0.052 0.48132,0.0911 l -0.16911,1.01469 z"
         style="font-style:normal;font-variant:normal;font-weight:normal;font-stretch:normal;font-size:13.00888062px;line-height:125%;font-family:Ubuntu;-inkscape-font-specification:'Ubuntu, Normal';text-align:start;writing-mode:lr-tb;text-anchor:start"
         id="path4504" />
      <path
         d="m 153.71081,144.3277 q 0,0.35124 -0.23416,0.61142 -0.23416,0.26018 -0.63744,0.26018 -0.40327,0 -0.63743,-0.26018 -0.23416,-0.26018 -0.23416,-0.61142 0,-0.35124 0.23416,-0.61142 0.23416,-0.26017 0.63743,-0.26017 0.40328,0 0.63744,0.26017 0.23416,0.26018 0.23416,0.61142 z m 0,-5.19054 q 0,0.35124 -0.23416,0.61142 -0.23416,0.26017 -0.63744,0.26017 -0.40327,0 -0.63743,-0.26017 -0.23416,-0.26018 -0.23416,-0.61142 0,-0.35124 0.23416,-0.61142 0.23416,-0.26018 0.63743,-0.26018 0.40328,0 0.63744,0.26018 0.23416,0.26018 0.23416,0.61142 z"
         style="font-style:normal;font-variant:normal;font-weight:normal;font-stretch:normal;font-size:13.00888062px;line-height:125%;font-family:Ubuntu;-inkscape-font-specification:'Ubuntu, Normal';text-align:start;writing-mode:lr-tb;text-anchor:start"
         id="path4506" />
      <path
         d="m 158.19318,140.5161 q 0,-1.15779 0.33823,-2.04239 0.35124,-0.88461 0.93664,-1.47001 0.59841,-0.59841 1.37894,-0.89761 0.79354,-0.2992 1.67815,-0.2992 0.87159,0 1.63911,0.2992 0.78054,0.2992 1.36594,0.89761 0.5854,0.5854 0.92363,1.47001 0.35124,0.8846 0.35124,2.04239 0,1.01469 -0.26018,1.80823 -0.26018,0.79355 -0.7285,1.37895 -0.45531,0.57239 -1.07973,0.93664 -0.61142,0.35124 -1.3139,0.48132 0.013,0.29921 0.26018,0.52036 0.26017,0.23416 0.65044,0.39027 0.39027,0.1561 0.8716,0.26017 0.48132,0.10407 0.96265,0.15611 l -0.2992,0.98867 q -0.67646,-0.0911 -1.30089,-0.24716 -0.61142,-0.1431 -1.11876,-0.39027 -0.49434,-0.24717 -0.83257,-0.63744 -0.33823,-0.37725 -0.45531,-0.94964 -0.81956,-0.052 -1.54806,-0.37726 -0.7285,-0.33823 -1.26186,-0.92363 -0.53337,-0.59841 -0.84558,-1.44399 -0.31221,-0.84557 -0.31221,-1.95133 z m 1.3269,0 q 0,0.81956 0.20815,1.49602 0.20814,0.66345 0.5854,1.13177 0.39026,0.46832 0.93664,0.7285 0.55938,0.24717 1.24885,0.24717 0.68947,0 1.23584,-0.24717 0.54637,-0.26018 0.92363,-0.7285 0.39027,-0.46832 0.59841,-1.13177 0.20814,-0.67646 0.20814,-1.49602 0,-0.81956 -0.20814,-1.48301 -0.20814,-0.67646 -0.59841,-1.14478 -0.37726,-0.46832 -0.92363,-0.71549 -0.54637,-0.26018 -1.23584,-0.26018 -0.68947,0 -1.24885,0.26018 -0.54638,0.24717 -0.93664,0.71549 -0.37726,0.46832 -0.5854,1.14478 -0.20815,0.66345 -0.20815,1.48301 z"
         style="font-style:normal;font-variant:normal;font-weight:normal;font-stretch:normal;font-size:13.00888062px;line-height:125%;font-family:Ubuntu;-inkscape-font-specification:'Ubuntu, Normal';text-align:start;writing-mode:lr-tb;text-anchor:start"
         id="path4508" />
      <path
         d="m 173.97743,144.83505 q -0.41629,0.10407 -1.10576,0.22115 -0.67646,0.11708 -1.57407,0.11708 -0.78053,0 -1.3139,-0.22115 -0.53336,-0.23416 -0.85858,-0.65045 -0.32523,-0.41628 -0.46832,-0.97566 -0.1431,-0.57239 -0.1431,-1.26186 l 0,-3.7986 1.20982,0 0,3.53842 q 0,1.23584 0.39027,1.76921 0.39027,0.53336 1.3139,0.53336 0.19513,0 0.40327,-0.013 0.20814,-0.013 0.39027,-0.026 0.18212,-0.026 0.32522,-0.039 0.15611,-0.026 0.22115,-0.052 l 0,-5.7109 1.20983,0 0,6.56949 z"
         style="font-style:normal;font-variant:normal;font-weight:normal;font-stretch:normal;font-size:13.00888062px;line-height:125%;font-family:Ubuntu;-inkscape-font-specification:'Ubuntu, Normal';text-align:start;writing-mode:lr-tb;text-anchor:start"
         id="path4510" />
      <path
         d="m 178.35125,144.15859 q 0.4293,0 0.75452,-0.013 0.33823,-0.026 0.55938,-0.0781 l 0,-2.01637 q -0.13009,-0.0651 -0.42929,-0.10407 -0.2862,-0.052 -0.70248,-0.052 -0.27319,0 -0.5854,0.039 -0.29921,0.039 -0.55938,0.16911 -0.24717,0.11708 -0.41629,0.33823 -0.16911,0.20815 -0.16911,0.55939 0,0.65044 0.41628,0.91062 0.41629,0.24717 1.13177,0.24717 z m -0.10407,-6.06214 q 0.7285,0 1.22284,0.19513 0.50734,0.18213 0.80655,0.53337 0.31221,0.33823 0.4423,0.81956 0.13009,0.46832 0.13009,1.04071 l 0,4.22788 q -0.15611,0.026 -0.4423,0.0781 -0.27319,0.039 -0.62443,0.078 -0.35124,0.039 -0.76752,0.065 -0.40328,0.039 -0.80655,0.039 -0.57239,0 -1.05372,-0.11708 -0.48133,-0.11708 -0.83257,-0.36425 -0.35124,-0.26018 -0.54637,-0.67646 -0.19514,-0.41628 -0.19514,-1.00168 0,-0.55939 0.22115,-0.96266 0.23416,-0.40328 0.62443,-0.65045 0.39027,-0.24716 0.91062,-0.36424 0.52036,-0.11708 1.09275,-0.11708 0.18212,0 0.37726,0.026 0.19513,0.013 0.36424,0.052 0.18213,0.026 0.31222,0.052 0.13009,0.026 0.18212,0.039 l 0,-0.33823 q 0,-0.2992 -0.065,-0.5854 -0.0651,-0.2992 -0.23416,-0.52035 -0.16912,-0.23416 -0.46832,-0.36425 -0.2862,-0.1431 -0.75452,-0.1431 -0.59841,0 -1.05372,0.0911 -0.4423,0.0781 -0.66345,0.16912 l -0.1431,-1.00169 q 0.23416,-0.10407 0.78054,-0.19513 0.54637,-0.10407 1.1838,-0.10407 z"
         style="font-style:normal;font-variant:normal;font-weight:normal;font-stretch:normal;font-size:13.00888062px;line-height:125%;font-family:Ubuntu;-inkscape-font-specification:'Ubuntu, Normal';text-align:start;writing-mode:lr-tb;text-anchor:start"
         id="path4512" />
      <path
         d="m 183.97739,138.26556 2.56275,0 0,1.0147 -2.56275,0 0,3.12213 q 0,0.50734 0.0781,0.84558 0.078,0.32522 0.23415,0.52035 0.15611,0.18212 0.39027,0.26018 0.23416,0.078 0.54637,0.078 0.54638,0 0.8716,-0.11708 0.33823,-0.13009 0.46832,-0.18212 l 0.23416,1.00168 q -0.18213,0.0911 -0.63744,0.22115 -0.45531,0.1431 -1.04071,0.1431 -0.68947,0 -1.14478,-0.16912 -0.4423,-0.18212 -0.71549,-0.53336 -0.27318,-0.35124 -0.39026,-0.85859 -0.10407,-0.52035 -0.10407,-1.19681 l 0,-6.03612 1.20982,-0.20815 0,2.09443 z"
         style="font-style:normal;font-variant:normal;font-weight:normal;font-stretch:normal;font-size:13.00888062px;line-height:125%;font-family:Ubuntu;-inkscape-font-specification:'Ubuntu, Normal';text-align:start;writing-mode:lr-tb;text-anchor:start"
         id="path4514" />
      <path
         d="m 189.65373,144.15859 q 0.74151,0 1.09275,-0.19514 0.36425,-0.19513 0.36425,-0.62442 0,-0.4423 -0.35124,-0.70248 -0.35124,-0.26018 -1.15779,-0.5854 -0.39027,-0.15611 -0.75452,-0.31221 -0.35124,-0.16912 -0.61141,-0.39027 -0.26018,-0.22115 -0.41629,-0.53337 -0.15611,-0.31221 -0.15611,-0.76752 0,-0.89761 0.66346,-1.41797 0.66345,-0.53336 1.80823,-0.53336 0.2862,0 0.57239,0.039 0.2862,0.026 0.53337,0.078 0.24717,0.039 0.42929,0.0911 0.19513,0.052 0.2992,0.0911 l -0.22115,1.04071 q -0.19513,-0.10407 -0.61141,-0.20814 -0.41629,-0.11708 -1.00169,-0.11708 -0.50734,0 -0.8846,0.20814 -0.37726,0.19514 -0.37726,0.62443 0,0.22115 0.078,0.39027 0.0911,0.16911 0.26018,0.31221 0.18213,0.13009 0.4423,0.24717 0.26018,0.11708 0.62443,0.24717 0.48133,0.18212 0.85859,0.36425 0.37725,0.16911 0.63743,0.40327 0.27319,0.23416 0.41628,0.57239 0.1431,0.32522 0.1431,0.80655 0,0.93664 -0.70248,1.41797 -0.68947,0.48133 -1.97735,0.48133 -0.89761,0 -1.40496,-0.15611 -0.50734,-0.1431 -0.68947,-0.22115 l 0.22115,-1.04071 q 0.20815,0.0781 0.66346,0.23416 0.45531,0.15611 1.20982,0.15611 z"
         style="font-style:normal;font-variant:normal;font-weight:normal;font-stretch:normal;font-size:13.00888062px;line-height:125%;font-family:Ubuntu;-inkscape-font-specification:'Ubuntu, Normal';text-align:start;writing-mode:lr-tb;text-anchor:start"
         id="path4516" />
      <path
         d="m 196.81269,145.18629 q -0.81956,0 -1.44399,-0.26018 -0.61142,-0.26018 -1.04071,-0.7285 -0.41628,-0.46832 -0.62442,-1.10575 -0.20815,-0.65045 -0.20815,-1.43098 0,-0.78053 0.22115,-1.43098 0.23416,-0.65044 0.65045,-1.11876 0.41628,-0.48133 1.01469,-0.7415 0.61142,-0.27319 1.35292,-0.27319 0.45532,0 0.91063,0.078 0.45531,0.0781 0.87159,0.24717 l -0.27319,1.0277 q -0.27318,-0.13009 -0.63743,-0.20814 -0.35124,-0.078 -0.75452,-0.078 -1.01469,0 -1.56106,0.63743 -0.53337,0.63744 -0.53337,1.86027 0,0.54637 0.11708,1.00169 0.13009,0.45531 0.39027,0.78053 0.27319,0.32522 0.68947,0.50734 0.41629,0.16912 1.01469,0.16912 0.48133,0 0.8716,-0.0911 0.39027,-0.0911 0.61142,-0.19514 l 0.16911,1.0147 q -0.10407,0.065 -0.2992,0.13009 -0.19514,0.052 -0.4423,0.0911 -0.24717,0.052 -0.53337,0.078 -0.27318,0.039 -0.53336,0.039 z"
         style="font-style:normal;font-variant:normal;font-weight:normal;font-stretch:normal;font-size:13.00888062px;line-height:125%;font-family:Ubuntu;-inkscape-font-specification:'Ubuntu, Normal';text-align:start;writing-mode:lr-tb;text-anchor:start"
         id="path4518" />
      <path
         d="m 199.91978,145.03018 0,-9.88675 1.20982,-0.20814 0,3.46036 q 0.33823,-0.13009 0.71549,-0.19513 0.39027,-0.0781 0.76753,-0.0781 0.80655,0 1.33991,0.23416 0.53336,0.22115 0.84558,0.63743 0.32522,0.40328 0.45531,0.97567 0.13009,0.57239 0.13009,1.26186 l 0,3.79859 -1.20983,0 0,-3.53841 q 0,-0.62443 -0.0911,-1.06673 -0.078,-0.4423 -0.27319,-0.71549 -0.19513,-0.27319 -0.52035,-0.39027 -0.32523,-0.13009 -0.80655,-0.13009 -0.19514,0 -0.40328,0.026 -0.20814,0.026 -0.40327,0.065 -0.18213,0.026 -0.33824,0.065 -0.14309,0.039 -0.20814,0.065 l 0,5.61983 -1.20982,0 z"
         style="font-style:normal;font-variant:normal;font-weight:normal;font-stretch:normal;font-size:13.00888062px;line-height:125%;font-family:Ubuntu;-inkscape-font-specification:'Ubuntu, Normal';text-align:start;writing-mode:lr-tb;text-anchor:start"
         id="path4520" />
    </g>
    <g
       style="font-style:normal;font-variant:normal;font-weight:normal;font-stretch:normal;font-size:18.72802544px;line-height:125%;font-family:Ubuntu;-inkscape-font-specification:'Ubuntu, Normal';text-align:start;letter-spacing:0px;word-spacing:0px;writing-mode:lr-tb;text-anchor:start;fill:#000000;fill-opacity:1;stroke:none;stroke-width:1px;stroke-linecap:butt;stroke-linejoin:miter;stroke-opacity:1"
       id="text4449"
       transform="translate(-0.4106222,-0.82124439)">
      <path
         d="m 210.20375,186.52406 q 0,-3.25867 1.14241,-5.01911 1.16114,-1.76043 3.20249,-1.76043 2.04136,0 3.18377,1.76043 1.16113,1.76044 1.16113,5.01911 0,3.25868 -1.16113,5.01912 -1.14241,1.76043 -3.18377,1.76043 -2.04135,0 -3.20249,-1.76043 -1.14241,-1.76044 -1.14241,-5.01912 z m 6.85446,0 q 0,-1.06749 -0.1311,-2.02262 -0.11237,-0.95513 -0.41201,-1.6668 -0.28093,-0.71166 -0.76785,-1.12368 -0.48693,-0.43074 -1.1986,-0.43074 -0.71166,0 -1.19859,0.43074 -0.48693,0.41202 -0.78658,1.12368 -0.28092,0.71167 -0.41201,1.6668 -0.11237,0.95513 -0.11237,2.02262 0,1.0675 0.11237,2.02263 0.13109,0.95513 0.41201,1.6668 0.29965,0.71166 0.78658,1.14241 0.48693,0.41201 1.19859,0.41201 0.71167,0 1.1986,-0.41201 0.48692,-0.43075 0.76785,-1.14241 0.29964,-0.71167 0.41201,-1.6668 0.1311,-0.95513 0.1311,-2.02263 z"
         id="path4523"
         inkscape:connector-curvature="0" />
      <path
         d="m 221.58015,182.72228 q 1.0675,-0.41202 2.07881,-1.04877 1.01131,-0.65548 1.85407,-1.62934 l 1.23605,0 0,12.97852 -1.7417,0 0,-10.56261 q -0.22474,0.20601 -0.56184,0.43075 -0.31838,0.22473 -0.71167,0.43074 -0.37456,0.20601 -0.8053,0.39329 -0.41202,0.18728 -0.80531,0.31838 l -0.54311,-1.31096 z"
         id="path4525"
         inkscape:connector-curvature="0" />
      <path
         d="m 231.73922,196.48737 -1.77916,0 6.3488,-18.12872 1.74171,0 -6.31135,18.12872 z"
         id="path4527"
         inkscape:connector-curvature="0" />
      <path
         d="m 246.36142,183.35903 q 0,0.67421 -0.28092,1.31096 -0.26219,0.61803 -0.71166,1.23605 -0.44948,0.5993 -1.01132,1.19859 -0.56184,0.58057 -1.12368,1.14241 -0.31837,0.31838 -0.74912,0.74912 -0.41202,0.43075 -0.78658,0.89895 -0.37456,0.4682 -0.63675,0.89894 -0.24346,0.43075 -0.24346,0.74913 l 5.97424,0 0,1.47951 -7.86577,0 q -0.0187,-0.11237 -0.0187,-0.22474 0,-0.11236 0,-0.206 0,-0.88022 0.28092,-1.62934 0.29965,-0.76785 0.76785,-1.44206 0.4682,-0.67421 1.04877,-1.27351 0.58057,-0.59929 1.14241,-1.16113 0.4682,-0.44948 0.88021,-0.88022 0.43075,-0.44947 0.74913,-0.88022 0.3371,-0.44947 0.52438,-0.91767 0.20601,-0.4682 0.20601,-0.99259 0,-0.56184 -0.18728,-0.95513 -0.16855,-0.39329 -0.4682,-0.65548 -0.29965,-0.26219 -0.71167,-0.37456 -0.39329,-0.13109 -0.84276,-0.13109 -0.54311,0 -0.99258,0.14982 -0.44948,0.14982 -0.80531,0.35583 -0.35583,0.18728 -0.5993,0.41202 -0.24346,0.20601 -0.37456,0.31838 l -0.86149,-1.23605 q 0.16856,-0.18728 0.50566,-0.44948 0.33711,-0.28092 0.80531,-0.52438 0.4682,-0.24347 1.04877,-0.41202 0.58056,-0.16855 1.25477,-0.16855 2.04136,0 3.05267,0.95513 1.03004,0.9364 1.03004,2.65938 z"
         id="path4529"
         inkscape:connector-curvature="0" />
      <path
         d="m 249.12293,186.52406 q 0,-3.25867 1.14241,-5.01911 1.16114,-1.76043 3.20249,-1.76043 2.04136,0 3.18376,1.76043 1.16114,1.76044 1.16114,5.01911 0,3.25868 -1.16114,5.01912 -1.1424,1.76043 -3.18376,1.76043 -2.04135,0 -3.20249,-1.76043 -1.14241,-1.76044 -1.14241,-5.01912 z m 6.85446,0 q 0,-1.06749 -0.1311,-2.02262 -0.11237,-0.95513 -0.41202,-1.6668 -0.28092,-0.71166 -0.76785,-1.12368 -0.48692,-0.43074 -1.19859,-0.43074 -0.71166,0 -1.19859,0.43074 -0.48693,0.41202 -0.78658,1.12368 -0.28092,0.71167 -0.41202,1.6668 -0.11236,0.95513 -0.11236,2.02262 0,1.0675 0.11236,2.02263 0.1311,0.95513 0.41202,1.6668 0.29965,0.71166 0.78658,1.14241 0.48693,0.41201 1.19859,0.41201 0.71167,0 1.19859,-0.41201 0.48693,-0.43075 0.76785,-1.14241 0.29965,-0.71167 0.41202,-1.6668 0.1311,-0.95513 0.1311,-2.02263 z"
         id="path4531"
         inkscape:connector-curvature="0" />
      <path
         d="m 260.49933,182.72228 q 1.0675,-0.41202 2.07881,-1.04877 1.01131,-0.65548 1.85407,-1.62934 l 1.23605,0 0,12.97852 -1.7417,0 0,-10.56261 q -0.22474,0.20601 -0.56184,0.43075 -0.31838,0.22473 -0.71167,0.43074 -0.37456,0.20601 -0.8053,0.39329 -0.41202,0.18728 -0.80531,0.31838 l -0.54311,-1.31096 z"
         id="path4533"
         inkscape:connector-curvature="0" />
      <path
         d="m 270.50858,187.8163 q 0,-1.89153 0.52438,-3.33359 0.52439,-1.46079 1.47952,-2.45337 0.97385,-0.99259 2.341,-1.49824 1.38587,-0.52439 3.10885,-0.54312 l 0.1311,1.46079 q -1.10496,0.0187 -2.02263,0.24346 -0.89894,0.22474 -1.61061,0.71167 -0.71166,0.48693 -1.19859,1.27351 -0.48693,0.76784 -0.7304,1.91025 0.48693,-0.22473 1.08623,-0.37456 0.61803,-0.14982 1.27351,-0.14982 1.10495,0 1.8728,0.3371 0.76785,0.33711 1.25478,0.89895 0.48692,0.54311 0.69293,1.2735 0.22474,0.71167 0.22474,1.49825 0,0.71166 -0.24346,1.46078 -0.24347,0.74912 -0.74913,1.36715 -0.48692,0.61802 -1.25477,1.01131 -0.76785,0.39329 -1.81662,0.39329 -2.135,0 -3.25868,-1.46079 -1.10495,-1.46078 -1.10495,-4.02652 z m 4.19508,-1.32969 q -0.65549,0 -1.21733,0.1311 -0.56184,0.11236 -1.12368,0.35583 -0.0187,0.20601 -0.0374,0.43074 0,0.20601 0,0.41202 0,0.82403 0.11236,1.55442 0.11237,0.7304 0.39329,1.29224 0.29965,0.54311 0.78658,0.88022 0.48693,0.31837 1.23605,0.31837 0.61802,0 1.04877,-0.26219 0.43074,-0.26219 0.71166,-0.67421 0.28092,-0.41202 0.39329,-0.88022 0.1311,-0.48692 0.1311,-0.9364 0,-1.2735 -0.61803,-1.94771 -0.59929,-0.67421 -1.81661,-0.67421 z"
         id="path4535"
         inkscape:connector-curvature="0" />
    </g>
  </g>
</svg>
